<svg width="52" height="47" viewBox="0 0 52 47" fill="none" xmlns="http://www.w3.org/2000/svg">
<g clip-path="url(#clip0)">
<path d="M0.00723783 32.8908C0.188221 36.478 2.70026 40.0229 7.55784 42.7503C17.6784 48.4377 34.1406 48.4095 44.3263 42.6869C50.2481 39.3605 52.7456 34.836 51.8045 30.5229C51.6236 29.6701 51.305 28.8244 50.8489 27.9999C49.6545 25.8081 47.5189 23.7502 44.4349 22.0235C34.3144 16.3362 17.8521 16.3644 7.66643 22.087C4.53181 23.8489 2.35278 25.949 1.14381 28.169C0.311289 29.7054 -0.0723946 31.2981 0.00723783 32.8908Z" fill="#F0F0F0"/>
<path d="M49.4373 29.4094L48.4889 29.4023C47.7071 26.7947 45.528 24.2929 41.9446 22.2773C32.8086 17.1467 18.0476 17.1185 8.97675 22.2209C5.53084 24.1589 3.40972 26.5551 2.58444 29.057L1.54198 29.0499L2.3383 32.8908H2.34554C2.91021 35.7592 5.15439 38.55 9.0781 40.7559C18.2141 45.8865 32.9751 45.9147 42.0459 40.8123C45.8683 38.6628 48.069 35.9495 48.6554 33.1375H48.6627L49.4373 29.4094Z" fill="#F7A75C"/>
<path d="M49.4373 28.0492L48.4889 28.0421C47.7071 25.4346 45.528 22.9327 41.9446 20.9171C32.8086 15.7865 18.0476 15.7583 8.97675 20.8607C5.53084 22.7988 3.40972 25.1949 2.58444 27.6968H1.54198L2.3383 31.5377H2.34554C2.91021 34.4061 5.15439 37.1969 9.0781 39.4028C18.2141 44.5334 32.9751 44.5616 42.0459 39.4591C45.8683 37.3096 48.069 34.5963 48.6554 31.7844H48.6627L49.4373 28.0492Z" fill="#FFC87A"/>
<path d="M49.6188 27.7661C49.6605 20.2813 38.898 14.1567 25.5801 14.0864C12.2622 14.0161 1.43217 20.0267 1.39048 27.5115C1.34878 34.9963 12.1113 41.1209 25.4291 41.1912C38.747 41.2615 49.5771 35.2509 49.6188 27.7661Z" fill="#EE702C"/>
<path d="M4.7707 23.7925C4.7707 23.7925 1.05693 23.5529 0.354718 25.5191C-0.347496 27.4854 0.043427 29.1909 1.76638 29.9309C3.48934 30.6709 5.25573 32.0874 4.7707 33.0529C4.47389 33.652 3.90922 34.1876 4.28567 34.8712C4.40149 35.0826 4.66935 35.2024 4.77794 35.3998C4.86481 35.5618 4.8069 35.6887 4.85033 35.8578C4.99512 36.3653 5.33537 36.7247 5.79144 37.0066C7.72434 38.1906 9.69343 37.8946 11.8363 37.958C13.2262 38.0003 15.6007 39.1772 16.3029 40.4035C17.1355 41.8623 17.6494 43.4198 20.5958 43.3564C22.7314 43.3071 24.7874 42.0949 26.6262 41.1576C27.3791 40.777 28.1464 40.0511 28.9645 39.8538C30.2386 39.5508 31.7371 39.8327 33.004 40.0723C34.5894 40.3612 36.1676 40.7488 37.782 40.7065C38.0354 40.6995 38.296 40.6784 38.5276 40.5726C38.7738 40.4599 38.9692 40.2626 39.1574 40.0652C39.599 39.6071 40.0479 39.1349 40.3664 38.5852C40.7573 37.9157 40.9456 37.1264 41.4885 36.5626C42.2993 35.7169 43.6169 35.6394 44.8041 35.6182C46.3606 35.59 47.4682 35.5759 48.6916 34.54C49.2129 34.096 49.7341 33.652 50.2553 33.208C50.6824 32.8415 51.1313 32.4539 51.2978 31.9253C51.3846 31.6575 51.3846 31.3756 51.3919 31.1008C51.3991 30.6004 51.4136 30.1071 51.4208 29.6067C51.4353 28.8526 51.3919 27.9717 50.7621 27.5206C50.5232 27.3515 50.2191 27.2669 49.9585 27.1189C49.0753 26.6115 48.8654 25.4839 48.3658 24.61C48.3152 24.5184 48.2573 24.4197 48.1632 24.3704C48.0546 24.3069 47.9243 24.314 47.8012 24.3281C46.9397 24.4267 46.1579 24.8355 45.3471 25.1315C44.4494 25.4557 43.5155 25.653 42.5744 25.8503C41.684 26.0336 40.7863 26.2239 39.8959 26.4071C37.0074 27.0132 34.2564 26.6115 31.3462 26.3366C28.5518 26.0759 25.7502 25.8151 22.9559 25.5473C18.1634 25.0892 13.3782 24.6311 8.58582 24.166C7.31894 24.0391 6.04482 23.9123 4.7707 23.7925Z" fill="#95A614"/>
<path d="M41.7274 14.4756C32.7145 9.40846 18.149 9.38731 9.19393 14.4193C4.34359 17.1466 2.1356 20.7973 2.56272 24.3774C2.1356 27.9787 4.37979 31.6716 9.29528 34.4342C18.3082 39.5014 32.8737 39.5226 41.8288 34.4906C46.6791 31.7632 48.8871 28.1126 48.46 24.5325C48.8799 20.9382 46.6429 17.2453 41.7274 14.4756Z" fill="#572605"/>
<path d="M47.2829 21.1055C47.3206 14.3447 37.6017 8.81253 25.5752 8.74906C13.5488 8.68558 3.76886 14.1149 3.73121 20.8757C3.69356 27.6365 13.4124 33.1687 25.4389 33.2322C37.4654 33.2957 47.2453 27.8664 47.2829 21.1055Z" fill="#914627"/>
<path d="M4.51733 23.5388C3.95266 23.729 2.96811 23.9898 2.59891 24.462C2.12111 25.0822 2.43964 26.6397 2.43964 27.3867C2.43964 27.7039 2.43964 28.028 2.54099 28.324C2.71474 28.8244 3.18529 29.2191 3.721 29.3036C3.86579 29.3248 4.03953 29.3177 4.13364 29.205C4.22775 29.0922 4.20604 28.9301 4.28567 28.8103C4.38702 28.6482 4.61868 28.6271 4.8069 28.6271C5.6177 28.6341 6.34887 28.8315 7.12348 29.0499C7.79674 29.2402 8.49895 29.1275 9.15773 29.353C10.4898 29.8181 10.8228 31.2276 10.7504 32.468C10.6563 34.0043 10.1785 34.9981 10.9748 36.1327C11.6263 37.0559 12.9656 36.8093 13.8198 37.4224C14.8189 38.1342 13.8995 39.0574 13.9646 40.0018C14.0443 41.1787 14.7175 42.3557 14.5945 43.5326C14.5872 43.6242 14.5655 43.7159 14.5221 43.7863C14.4641 43.8709 14.37 43.9273 14.2832 43.9907C13.9791 44.2162 13.7909 44.5686 13.7692 44.9351C13.7619 45.1042 13.7909 45.2804 13.914 45.4002C14.0443 45.52 14.2325 45.5482 14.4135 45.5623C14.8261 45.5975 15.3039 45.5271 15.7021 45.6187C16.1002 45.7033 16.4912 45.8935 16.9038 45.9781C17.8811 46.1613 18.8874 46.2248 19.8792 46.1613C20.0095 46.1543 20.147 46.1402 20.2628 46.0838C20.3714 46.0345 20.4583 45.9499 20.5379 45.8653C20.6755 45.7173 20.813 45.5693 20.9361 45.4073C21.1243 45.1606 21.2836 44.7871 21.0519 44.5756C20.965 44.4981 20.8492 44.4629 20.7334 44.4347C20.4511 44.3572 20.1615 44.2515 19.9515 44.0541C19.6041 43.7299 19.6258 43.1168 19.6403 42.6728C19.6547 42.1372 19.7633 41.5523 20.1615 41.1858C20.5235 40.8545 21.0447 40.7559 21.4718 40.5092C22.4491 39.9666 22.2826 38.8883 23.0717 38.2822C23.7884 37.7325 24.5123 36.8445 25.5041 36.8445C26.3004 36.8445 27.1112 36.8586 27.8931 37.0136C28.7111 37.1757 29.7825 37.1898 30.4341 37.7536C30.8033 38.0778 30.9987 38.5641 31.0422 39.0504C31.0784 39.5367 30.977 40.0229 30.8395 40.4881C30.7092 40.925 30.5354 41.362 30.5209 41.8201C30.5065 42.2782 30.6802 42.7715 31.0856 43.004C31.2232 43.0816 31.3824 43.1239 31.5345 43.1591C33.004 43.448 34.4085 42.997 35.2048 41.7143C35.4726 41.2915 35.6391 40.8123 35.755 40.326C35.9287 39.6071 35.9939 38.8601 35.9504 38.1201C35.8925 37.1264 36.906 37.2533 37.3187 36.4428C37.6227 35.8508 37.5938 35.2729 38.3322 35.0262C38.9186 34.8289 39.7149 34.9699 40.2361 34.5752C41.0324 33.9691 41.5609 32.6865 41.9808 31.8267C42.2342 31.2981 42.3572 30.4876 42.7192 30.0436C43.0594 29.6208 43.9499 29.2684 44.4349 29.0499C44.9272 28.8244 45.5353 28.7398 45.9914 29.0288C46.433 29.3107 46.556 29.7688 46.4692 30.241C46.3533 30.8611 46.3968 31.4884 46.3968 32.1227C46.3968 32.5385 46.404 32.9613 46.5054 33.363C46.6212 33.8211 46.9397 34.3074 47.4247 34.3285C47.8519 34.3497 48.2066 33.9973 48.4093 33.6308C48.8943 32.7851 48.9378 31.7773 48.9812 30.8048C48.9957 30.4312 49.0174 30.0648 49.0391 29.6913C49.0463 29.4869 49.0608 29.2825 49.1622 29.1063C49.2563 28.9301 49.4228 28.8033 49.5531 28.6482C49.9006 28.2536 50.0164 27.7109 50.0381 27.1894C50.0526 26.6679 49.9875 26.1463 50.0092 25.6319C50.0381 25.0046 50.2336 24.3492 50.0961 23.722C50.0381 23.4471 49.8137 22.4816 49.43 22.4887C48.9305 22.531 4.51733 23.5388 4.51733 23.5388Z" fill="#FFC521"/>
<path d="M2.85952 23.7784C2.72198 23.9334 2.00529 25.5332 3.35904 26.83C4.71279 28.1337 9.61381 28.7892 10.9241 30.0225C12.2344 31.2488 11.4815 32.7851 14.1384 34.7725C16.788 36.767 21.4573 35.2799 25.5113 35.5055C29.5654 35.731 31.5634 37.0418 33.185 36.3159C34.8139 35.59 35.7839 34.0678 37.4562 33.5603C39.1285 33.06 39.6859 32.8908 40.8949 31.5095C42.1039 30.1212 43.2694 28.8385 43.7761 28.5848C44.2829 28.3311 47.3017 27.7461 48.5106 26.837C49.7196 25.9208 50.1829 24.7368 50.1829 24.7368L2.85952 23.7784Z" fill="#FF9309"/>
<path d="M51.0589 21.7135H50.6173C50.2481 20.4942 49.2346 19.3243 47.5551 18.38C43.2839 15.9768 36.3776 15.9697 32.1281 18.3518C30.5137 19.2539 29.5219 20.3815 29.1382 21.5514L28.6532 21.5443L29.0296 23.3414C29.2975 24.6805 30.34 25.9913 32.1788 27.0202C36.4499 29.4235 43.3563 29.4305 47.6057 27.0484C49.3938 26.0406 50.4218 24.7721 50.6969 23.4612L51.0589 21.7135Z" fill="#EF3324"/>
<path d="M47.8663 25.3852C43.4721 27.8519 36.3341 27.8378 31.9109 25.357C27.4949 22.8763 27.466 18.8592 31.8602 16.3926C36.2545 13.9259 43.3924 13.94 47.8157 16.4208C52.2389 18.9015 52.2606 22.9186 47.8663 25.3852Z" fill="#FF6A4F"/>
<path d="M35.574 27.6616H35.1324C34.7632 26.4423 33.7497 25.2725 32.0702 24.3281C27.799 21.9249 20.8927 21.9178 16.6432 24.2999C15.0288 25.202 14.037 26.3296 13.6533 27.4995L13.1683 27.4924L13.5447 29.2895C13.8126 30.6286 14.8551 31.9394 16.6939 32.9684C20.965 35.3716 27.8714 35.3786 32.1208 32.9965C33.9089 31.9888 34.9369 30.7202 35.212 29.4094L35.574 27.6616Z" fill="#EF3324"/>
<path d="M32.3815 31.3333C27.9872 33.8 20.8492 33.7859 16.426 31.3051C12.01 28.8244 11.9811 24.8073 16.3753 22.3407C20.7696 19.874 27.9076 19.8881 32.3308 22.3689C36.754 24.8496 36.7757 28.8667 32.3815 31.3333Z" fill="#FF6A4F"/>
<path d="M22.7676 20.607H22.326C21.9568 19.3878 20.9433 18.2179 19.2638 17.2735C14.9926 14.8703 8.08631 14.8632 3.83683 17.2453C2.22246 18.1474 1.23068 19.275 0.846994 20.4449L0.354721 20.4378L0.731165 22.235C0.99902 23.574 2.04148 24.8848 3.88027 25.9138C8.15146 28.317 15.0578 28.324 19.3072 25.942C21.0954 24.9342 22.1233 23.6656 22.3984 22.3548L22.7676 20.607Z" fill="#EF3324"/>
<path d="M19.5751 24.2788C15.1808 26.7454 8.03563 26.7313 3.61965 24.2506C-0.796329 21.7698 -0.825287 17.7527 3.56898 15.2861C7.96324 12.8195 15.1012 12.8336 19.5244 15.3143C23.9404 17.795 23.9621 21.8121 19.5751 24.2788Z" fill="#FF6A4F"/>
<path d="M5.79145 15.3636C5.79145 15.3636 2.25866 15.1311 1.5854 17.0057C0.919388 18.8803 1.28859 20.5013 2.92468 21.206C4.568 21.9108 6.24752 23.2569 5.79145 24.173C5.50911 24.7368 4.96616 25.2513 5.32813 25.9067C5.43672 26.1041 5.69734 26.2168 5.79145 26.4071C5.87108 26.5622 5.8204 26.682 5.86384 26.8441C6.00139 27.3303 6.32716 27.6686 6.76151 27.9364C8.6003 29.064 10.4753 28.7821 12.5095 28.8456C13.8343 28.8878 16.093 30.0084 16.759 31.1712C17.5553 32.5596 18.0404 34.0466 20.8492 33.9762C22.8835 33.9268 24.8381 32.771 26.59 31.883C27.3067 31.5166 28.0379 30.8259 28.8125 30.6427C30.0287 30.3537 31.4548 30.6286 32.6565 30.847C34.1623 31.1219 35.6681 31.4954 37.2028 31.4461C37.449 31.439 37.6951 31.4179 37.9123 31.3192C38.1512 31.2135 38.3322 31.0232 38.5131 30.84C38.933 30.4031 39.3601 29.9591 39.6642 29.4305C40.0334 28.7892 40.2144 28.0421 40.7284 27.5065C41.4957 26.7031 42.7554 26.6256 43.8847 26.6044C45.3615 26.5762 46.4257 26.5622 47.584 25.5755C48.0763 25.1526 48.5758 24.7298 49.0681 24.314C49.4735 23.9687 49.9006 23.5951 50.0599 23.0948C50.1395 22.8411 50.1467 22.5732 50.1467 22.3054C50.154 21.8333 50.1612 21.354 50.1757 20.8818C50.1902 20.163 50.1467 19.3243 49.5459 18.9015C49.3142 18.7394 49.0319 18.6619 48.7857 18.5209C47.946 18.0417 47.7433 16.9705 47.2727 16.1318C47.222 16.0472 47.1641 15.9556 47.0773 15.9063C46.9759 15.8499 46.8456 15.857 46.7298 15.871C45.9117 15.9697 45.1661 16.3503 44.3987 16.6322C43.5445 16.9423 42.654 17.1326 41.7636 17.3158C40.9166 17.492 40.0624 17.6682 39.2154 17.8514C36.4644 18.4293 33.8438 18.0417 31.0784 17.788C28.4143 17.5413 25.7575 17.2876 23.0934 17.0339C18.5326 16.604 13.9791 16.16 9.41834 15.723C8.20938 15.5962 7.00041 15.4834 5.79145 15.3636Z" fill="#95A614"/>
<path d="M49.6183 16.9423C49.6183 11.9456 46.8746 8.49228 46.8746 8.49228C45.7669 6.77268 43.9861 5.15175 41.5319 3.77748C32.6276 -1.22627 18.2358 -1.25446 9.38215 3.7211C6.85562 5.13765 5.06027 6.80792 3.98162 8.59094L3.97438 8.59799C1.62884 12.4107 1.46233 15.864 1.46233 15.864H1.46957C0.9773 19.6697 3.32284 23.574 8.51343 26.4917C17.9607 31.7985 33.2284 31.8267 42.6178 26.5551C47.3234 23.9052 49.6617 20.4308 49.6255 16.9493C49.6183 16.9423 49.6183 16.9423 49.6183 16.9423Z" fill="#FFC87A"/>
<path d="M43.5228 17.9924C43.4214 17.9078 43.2911 17.8021 43.045 17.7104C42.8133 17.6118 42.3645 17.5695 41.9808 17.7316C41.7491 17.8232 41.5971 17.943 41.4813 18.0487L40.294 17.1466C40.2578 17.0621 40.2216 16.9775 40.1058 16.8154C39.9755 16.6533 39.7221 16.3291 39.2154 16.1952C38.9837 16.1388 38.7231 16.1459 38.5132 16.2023C38.3032 16.2587 38.1512 16.3503 38.0354 16.4348C37.8037 16.611 37.7096 16.7731 37.63 16.9141C37.4635 17.3792 37.3838 17.8091 37.4635 18.4223L37.6662 18.5773C37.9702 18.5491 38.2308 18.4857 38.4697 18.4011C38.7231 18.6337 39.0851 18.8169 39.3674 19.0636C39.7221 19.3596 39.8669 19.7542 39.8741 20.1771L39.8959 20.8677L40.5257 20.4449C40.6198 20.5858 40.7211 20.7268 40.8442 20.8537L41.7998 21.8755L42.8929 20.607C43.045 20.4308 43.1753 20.2335 43.2839 20.0291C43.5517 20.0643 43.834 20.0996 44.1743 20.1066L44.3553 19.9304C44.3408 19.5358 44.2394 19.1975 44.1019 18.8803C43.9426 18.5562 43.7906 18.2743 43.5228 17.9924ZM38.7159 18.2954C38.8534 18.232 38.9909 18.1685 39.1068 18.1122C39.1647 18.091 39.2226 18.1051 39.1719 18.1615C39.1502 18.2108 38.9475 18.3095 38.7159 18.2954ZM42.3934 19.9657C42.2848 19.9093 42.2848 19.874 42.3066 19.867L42.9798 19.9798C42.7409 20.0502 42.4875 20.015 42.3934 19.9657Z" fill="#FCC06D"/>
<path d="M39.6208 12.1288C38.991 12.2486 38.4335 12.0583 37.963 11.7623C37.5069 11.4522 37.1232 11.0082 36.935 10.4867L36.6889 9.78902L37.1304 9.32388C37.4128 9.02789 37.8109 8.88694 38.1005 8.87989C38.3973 8.8658 38.6217 8.93627 38.8027 9.02084C39.1719 9.19703 39.3602 9.40141 39.6353 9.51417C40.1492 9.75378 40.7139 9.7115 41.3003 9.54236L40.6922 10.6629C40.4099 10.5502 40.113 10.4515 39.8524 10.3176C39.5918 10.1837 39.3746 10.0145 39.1357 9.85245L37.1087 8.49932L39.9755 7.81571C40.4099 7.71 40.8515 7.61838 41.2931 7.62543C41.7347 7.63248 42.1835 7.71705 42.6323 7.83686L42.0097 9.73264C41.9301 9.61283 41.8505 9.47893 41.7781 9.34503C41.7274 9.21817 41.5826 9.06313 41.474 8.79532C41.4161 8.66142 41.3582 8.49228 41.3582 8.30199C41.3582 8.18923 41.3727 8.1399 41.4161 7.9919C41.4596 7.86505 41.5392 7.76638 41.6188 7.70295C41.7781 7.5761 41.9446 7.55495 42.1111 7.5761C42.2704 7.5761 42.4948 7.75933 42.4586 7.91438L42.2197 7.99895C42.1401 8.01304 42.198 8.13285 42.2124 8.16104C42.2414 8.20333 42.2704 8.25971 42.3428 8.24561C42.5455 8.11876 42.5382 7.95666 42.5961 7.92143C42.6613 7.87209 42.7554 7.88619 42.9291 7.92847C43.0812 7.96371 43.226 8.01304 43.3707 8.06238L45.6366 8.85875L42.7409 9.95816C42.3066 10.1203 41.8722 10.2401 41.4306 10.2894C40.989 10.3387 40.5474 10.2823 40.0986 10.2189L40.9383 8.18218C41.0904 8.4218 41.2569 8.64027 41.3799 8.90103C41.5102 9.15474 41.5899 9.45779 41.6985 9.73264L42.4586 11.7694L41.0904 10.8532C40.5908 10.5149 40.0696 10.3105 39.4977 10.374C39.2299 10.4163 38.8751 10.5079 38.7014 10.6418C38.6073 10.7052 38.5566 10.7898 38.5855 10.8321C38.6145 10.8814 38.7593 10.8673 38.8534 10.7757L39.0489 9.61283C39.2081 9.89474 39.3022 10.2048 39.4181 10.5572C39.5267 10.9237 39.6425 11.3183 39.7656 11.9033L39.6208 12.1288Z" fill="#FCC06D"/>
<path d="M13.8922 5.15879C13.885 5.49708 14.0732 5.67326 14.1673 6.09612C14.2108 6.29345 14.2325 6.5683 14.1022 6.90658C13.9791 7.25191 13.6316 7.562 13.2914 7.69591C12.9511 7.83686 12.6471 7.86505 12.372 7.87209C12.1041 7.87209 11.829 7.82276 11.677 7.79457C11.496 7.77343 11.373 7.75229 11.3006 7.75229C11.2282 7.75229 11.2427 7.76638 11.2861 7.73819L12.0824 6.54011C12.0969 6.80087 12.1041 7.11801 11.9666 7.53381C11.8942 7.73819 11.7639 7.98485 11.554 8.18923C11.344 8.39361 11.0689 8.52047 10.8155 8.5698C10.2871 8.64732 10.0192 8.48523 9.80928 8.40771C9.60657 8.32314 9.46903 8.25266 9.38216 8.23857L9.68621 7.76638C9.65725 8.11171 9.73688 8.47818 9.83823 8.85875C9.88891 9.04903 9.93958 9.25341 9.98302 9.48598C10.0192 9.7115 10.0482 10.0286 9.83099 10.3881C9.60657 10.7475 9.21565 10.9166 8.92608 11.0012L8.71614 11.0505C8.64375 11.0646 8.57859 11.0858 8.45552 11.0787C8.23111 11.0787 8.07908 11.0435 7.93429 11.0223C7.40582 10.9025 7.03662 10.7616 6.83392 10.7334C6.79772 10.7334 6.76876 10.7404 6.80496 10.7545C6.83392 10.7686 6.97146 10.7968 7.14521 10.7404C7.36239 10.6982 7.52165 10.4867 7.53613 10.4585C7.58681 10.4022 7.58681 10.6559 7.65196 10.8884C7.70263 11.1351 7.78227 11.41 7.84742 11.6566C7.88362 11.7764 7.92705 11.8892 7.93429 11.9456C7.92705 11.9597 7.93429 11.9808 7.84742 11.9385C7.79675 11.9174 7.72435 11.8821 7.57233 11.854C7.4203 11.8258 7.1814 11.8328 6.99318 11.9385L7.91258 13.9471C7.42754 14.0457 6.93527 14.1303 6.43576 14.1796C6.19686 14.1937 5.88557 14.236 5.70458 14.2149C5.61047 14.2149 5.51636 14.2149 5.42949 14.2219C5.3571 14.236 5.27023 14.2149 5.22679 14.3135L4.98789 14.3981C4.85758 14.2642 4.86482 13.9964 4.94446 13.8343C5.01685 13.6581 5.12544 13.5242 5.24127 13.4115L5.82765 12.8617C6.2041 12.5305 6.59502 12.2345 7.00042 11.9456L7.91981 13.9541C7.63748 14.088 7.29723 14.1092 7.05834 14.0528C6.8122 14.0034 6.65293 13.9259 6.52263 13.8484C6.26925 13.7004 6.14618 13.5736 6.02311 13.4467C5.79146 13.2071 5.63943 12.9957 5.50912 12.7772C5.24127 12.3473 5.07476 11.9033 4.96617 11.41C4.89378 10.9096 4.80691 10.3881 5.10372 9.60579C5.24127 9.22522 5.66115 8.69666 6.24029 8.50637C6.60226 8.37952 6.93527 8.40066 7.15245 8.44294C7.38411 8.48523 7.53613 8.5557 7.68092 8.61913C8.19491 8.87284 8.47 9.15475 8.65099 9.33093C8.67994 9.37322 8.71614 9.40846 8.67994 9.4296C8.65099 9.44369 8.67994 9.45779 8.7089 9.47188L8.78853 9.51417C8.8754 9.55645 8.88264 9.59874 8.89712 9.66217C8.92608 9.71855 9.02019 9.64103 9.04915 9.49303C9.0781 9.35208 9.08534 9.17589 9.06363 8.9997C9.02743 8.64028 8.9116 8.28085 8.78853 7.87209L8.69442 7.5761L9.09258 7.39991C9.42559 7.25191 9.74412 7.23077 9.96854 7.18848C10.193 7.15325 10.3812 7.06163 10.2726 7.00525C10.164 6.93477 9.95406 7.09686 9.9251 7.09686C9.88167 7.09686 9.84547 6.97706 9.81651 6.81496L9.62829 5.94107L10.5911 5.60984C10.9676 5.48298 11.3368 5.49003 11.6119 5.53936C11.887 5.58869 12.0969 5.65917 12.2634 5.7226C12.4444 5.78602 12.5023 5.82831 12.5892 5.86355C12.6616 5.89878 12.7122 5.91993 12.7122 5.96221C12.705 5.99745 12.6616 6.09612 12.6978 6.13135C12.734 6.17364 12.8281 6.11021 12.9005 5.96926L13.1756 5.45479C13.2914 5.26451 13.4724 5.04603 13.7113 4.9826L13.8922 5.15879Z" fill="#FCC06D"/>
<path d="M30.5354 7.51971C30.2821 7.10391 30.1952 6.74449 30.1445 6.39916C30.1083 6.05383 30.13 5.73669 30.2024 5.4266L32.3959 6.06088C32.4466 5.89878 32.4466 5.68736 32.3959 5.51117C32.3091 5.2786 32.3091 5.31384 32.2946 5.27155C32.2729 5.22222 32.186 5.12355 32.2005 5.13765C32.1932 5.12355 32.1643 5.10241 32.186 5.12355L32.2729 5.23631C32.3453 5.33498 32.4177 5.48298 32.49 5.63098C32.5624 5.78602 32.6276 5.95516 32.7072 6.11021C32.8013 6.27935 32.852 6.37801 33.0402 6.59649L32.4973 6.54011C32.6204 6.50487 32.6927 6.4203 32.7 6.32868C32.7145 6.23002 32.6566 6.11726 32.5697 5.97631C32.4756 5.83535 32.3597 5.68031 32.2584 5.46184C32.1498 5.25041 32.0846 4.95441 32.1353 4.60908L32.2584 3.74224L33.4529 3.87614C34.0031 3.93957 34.4447 4.34128 34.6039 4.51042C34.6908 4.60204 34.7849 4.66546 34.6763 4.53156C34.6256 4.48223 34.4519 4.2849 34.0682 4.22147C33.8945 4.17214 33.7135 4.17918 33.5542 4.22852C33.4601 4.24966 33.3732 4.2849 33.2936 4.32718L33.185 4.39061C33.1561 4.40471 33.1271 4.43994 33.1271 4.4329C33.1199 4.4329 33.0981 4.45404 33.1126 4.4329C33.1199 4.4188 33.1271 4.40471 33.1416 4.39061C33.1488 4.38356 33.1343 4.39766 33.1488 4.39061C33.1778 4.35537 33.2647 4.23556 33.4384 4.003C33.518 3.89728 33.6483 3.73519 33.8438 3.5731C34.0248 3.40396 34.4012 3.21367 34.7415 3.18548C35.1034 3.15729 35.3423 3.26301 35.5306 3.34758C35.6102 3.39691 35.6826 3.44624 35.7477 3.49557C35.7984 3.53786 35.8274 3.58014 35.8491 3.62243C35.9432 3.77748 35.9142 3.82681 35.7839 3.97481C35.7333 4.06642 35.7839 4.1369 35.8346 4.17918C35.878 4.21442 35.9794 4.2849 36.0518 4.20737L36.2617 4.06642C36.3414 4.09461 36.4138 4.17918 36.4499 4.27785C36.4789 4.37652 36.4789 4.47518 36.4572 4.57385C36.4138 4.76413 36.3196 4.94032 36.0952 5.08127C35.6174 5.30679 35.2482 5.20108 35.0383 5.20812C34.9876 5.20812 34.9297 5.21517 34.908 5.22222C34.9007 5.24336 34.8863 5.25746 34.8863 5.27155C34.908 5.32088 34.9659 5.37727 35.1541 5.39136C35.3279 5.39841 35.5378 5.29269 35.6102 5.25041C35.6826 5.20812 35.7188 5.19403 35.7115 5.23631C35.7188 5.29974 35.6681 5.49707 35.5233 5.75783C35.4871 5.82126 35.4292 5.90583 35.3858 5.96926L35.2555 6.13135C35.212 6.18068 35.1324 6.26525 35.0672 6.32163C35.0455 6.34982 34.9731 6.39916 34.9152 6.44849C34.8428 6.49782 34.8139 6.52601 34.7053 6.58944C34.5822 6.65287 34.4591 6.70925 34.3288 6.74449C34.1261 6.79382 33.9017 6.81496 33.699 6.77972C33.2285 6.7022 32.9751 6.45554 32.8665 6.34982C32.6421 6.09611 32.6348 6.01154 32.6204 5.96926C32.5769 5.8565 32.7507 6.01859 32.9534 5.99745L34.2637 5.25746C34.2058 5.24336 34.1117 5.30679 34.0175 5.44069C33.9234 5.5746 33.8438 5.75783 33.7497 5.96926C33.6701 6.18068 33.5759 6.41325 33.4529 6.63877C33.3226 6.86429 33.1416 7.04753 32.9751 7.21667L32.4321 7.16029C32.3959 7.17439 32.186 7.11801 32.0267 7.12505L31.4838 7.11096C31.3028 7.09686 31.1218 7.07572 30.9481 6.9982C30.8612 6.95591 30.7743 6.92067 30.673 6.8361C30.6295 6.80791 30.5571 6.73744 30.492 6.66696C30.4775 6.65287 30.3689 6.51897 30.3255 6.44144C30.2965 6.38506 30.2821 6.4062 30.1952 6.15249C30.1373 5.95516 30.1373 5.72964 30.1807 5.54641L32.3742 6.18068C32.2439 6.46259 32.0557 6.73744 31.8095 6.9841C31.5417 7.22372 31.2521 7.45629 30.7888 7.63248L30.5354 7.51971Z" fill="#FCC06D"/>
<path d="M32.4394 21.5373C32.3235 21.6077 32.2077 21.6641 32.0991 21.7135L31.1725 22.1011L32.1064 20.9805C32.3018 20.7409 32.5118 20.5577 32.7289 20.3956C32.8375 20.311 32.9461 20.2476 33.062 20.1841C33.1923 20.1207 33.2212 20.0643 33.5325 19.9939C33.6701 19.9657 33.8221 19.9516 34.0537 19.9868C34.2637 20.015 34.6474 20.1419 34.908 20.4942C35.1686 20.8184 35.1975 21.2836 35.1469 21.495C35.1034 21.7275 35.0528 21.8121 35.0383 21.8544C34.9369 22.0729 34.7777 22.2773 34.575 22.4605C34.3723 22.6367 34.1334 22.834 33.9669 22.9961C33.8872 23.0595 33.8583 23.0736 33.8293 23.0525C33.7931 23.0313 33.7714 23.0454 33.8148 23.0525C33.8583 23.0595 33.9379 23.0525 33.9958 23.0102C34.032 22.9961 34.0393 22.9679 34.0682 22.9397L34.1768 22.8199C34.3361 22.6578 34.5605 22.3195 35.1903 22.2279L35.6247 22.1645L35.9939 23.1723C36.0952 23.4471 36.1604 23.722 36.1821 23.9898C36.1966 24.1167 36.2038 24.2788 36.2255 24.3704C36.24 24.3563 36.2617 24.3281 36.2472 24.1801C36.2328 24.1026 36.2111 23.9898 36.1097 23.8348C36.0156 23.6868 35.8201 23.5106 35.6174 23.426C35.4075 23.3344 35.1903 23.3203 35.0745 23.3344C34.9587 23.3414 34.9152 23.3555 34.908 23.3485C34.9369 23.3273 35.0238 23.2921 35.0817 23.271C35.2048 23.2146 35.3351 23.1793 35.4654 23.1441C35.7333 23.0807 36.0011 23.0384 36.2834 23.0243L38.7448 22.8833L37.8761 24.462C37.7024 24.7791 37.5431 24.9483 37.3838 25.1174C37.3114 25.1808 37.2246 25.2936 37.1811 25.4205C37.1304 25.5544 37.1015 25.7164 37.1811 25.9208L37.0942 26.1534C36.8336 26.238 36.5151 26.1534 36.2762 25.9984C36.0373 25.8363 35.8274 25.6037 35.7115 25.3218C35.4582 24.7862 35.4726 24.2506 35.4654 23.8911L37.0581 25.3218C36.8192 25.4698 36.573 25.5896 36.3196 25.6883C36.1893 25.7305 36.0663 25.7799 35.9287 25.8081C35.8563 25.8292 35.8129 25.8363 35.7115 25.8574C35.6464 25.8715 35.5306 25.9067 35.3496 25.9208C35.1686 25.9349 34.8863 25.9208 34.6112 25.801C34.3506 25.6953 34.0972 25.4768 33.9669 25.2725C33.8293 25.0681 33.7786 24.8848 33.7497 24.7509C33.699 24.469 33.728 24.314 33.7497 24.166C33.7931 23.9898 33.8366 23.8982 33.8728 23.7572C33.9524 23.4965 34.0755 23.2428 34.2347 22.9961L35.0383 23.9475C35.1686 23.8207 34.9297 23.729 34.6546 23.7784L34.4302 23.8066C34.3433 23.8277 34.242 23.8348 34.1478 23.8418C33.9669 23.8489 33.7859 23.8348 33.5904 23.7784C33.4022 23.722 33.1561 23.581 33.0402 23.3273C32.9172 23.0736 32.9534 22.834 32.9461 22.679C32.9389 22.39 32.8737 22.1363 32.8303 21.8544C32.7941 21.5866 32.7941 21.3329 32.8665 21.1003C32.8954 21.0298 32.8954 21.0087 32.8665 21.1144C32.8448 21.206 32.8593 21.5443 33.0402 21.7698C33.2285 22.0235 33.4963 22.094 33.5832 22.1011C33.6918 22.1081 33.7207 22.094 33.7352 22.0799C33.8004 22.0376 33.5977 22.0517 33.4818 22.0376C33.3515 22.0235 33.2212 22.0094 33.0909 21.9813C32.8231 21.9249 32.5552 21.8403 32.2656 21.7135L32.2729 20.9805C32.3453 21.0721 32.4177 21.1778 32.4828 21.2906L32.4394 21.5373Z" fill="#FFD182"/>
<path d="M13.0018 11.5721C12.9584 11.6989 12.9077 11.8117 12.857 11.9174L12.3937 12.7913L12.3865 11.3465C12.3865 11.0435 12.4227 10.7686 12.4806 10.5079C12.5095 10.381 12.553 10.2542 12.5964 10.1344C12.6543 10.0075 12.6398 9.94407 12.8353 9.69741C12.9222 9.59169 13.0308 9.48598 13.2335 9.37322C13.4144 9.26751 13.7909 9.12656 14.2252 9.23932C14.6379 9.33093 14.9637 9.66922 15.065 9.8595C15.1808 10.0639 15.2026 10.1625 15.217 10.2048C15.2822 10.4374 15.2894 10.6911 15.2532 10.9589C15.2098 11.2197 15.1591 11.5227 15.1302 11.7482C15.1084 11.8469 15.094 11.8751 15.0578 11.8751C15.0216 11.8821 15.0071 11.9033 15.0505 11.8821C15.0867 11.861 15.1374 11.8046 15.1591 11.7412C15.1736 11.706 15.1664 11.6778 15.1736 11.6425L15.1808 11.4804C15.2026 11.2549 15.1446 10.8532 15.579 10.3951L15.8758 10.078L16.8242 10.6277C17.0848 10.7757 17.3164 10.9448 17.5047 11.1422C17.5988 11.2267 17.7146 11.3536 17.787 11.41C17.787 11.3888 17.787 11.3536 17.6784 11.2479C17.6205 11.1985 17.5264 11.1281 17.3454 11.0717C17.1716 11.0153 16.911 11.0012 16.7011 11.0646C16.4767 11.121 16.3029 11.2549 16.2233 11.3254C16.1364 11.4029 16.1147 11.4452 16.1075 11.4381C16.1147 11.4029 16.1581 11.3254 16.1943 11.2761C16.2595 11.1562 16.3319 11.0505 16.4115 10.9378C16.5708 10.7263 16.7518 10.522 16.9617 10.3387L18.7643 8.7037L19.1263 10.4585C19.1987 10.818 19.1914 11.0364 19.1769 11.269C19.1625 11.3606 19.1697 11.5016 19.2204 11.6284C19.271 11.7623 19.3507 11.9033 19.5534 12.016L19.6403 12.2486C19.4955 12.4812 19.1987 12.608 18.9018 12.6362C18.605 12.6574 18.301 12.6151 18.0186 12.4671C17.4685 12.2134 17.1354 11.7905 16.8966 11.5157L19.0611 11.6355C18.9742 11.8962 18.8656 12.1429 18.7353 12.3755C18.6629 12.4882 18.5978 12.601 18.5109 12.7067C18.4675 12.7701 18.4385 12.7983 18.3734 12.8758C18.3299 12.9322 18.2648 13.0238 18.1345 13.1507C18.0114 13.2705 17.7797 13.4396 17.4829 13.5172C17.2078 13.6017 16.8748 13.5876 16.6359 13.5101C16.397 13.4326 16.2378 13.3269 16.1292 13.2423C15.912 13.0591 15.8251 12.9181 15.7455 12.7913C15.6659 12.6292 15.6297 12.5305 15.5718 12.3966C15.4632 12.1499 15.3908 11.8751 15.3473 11.5861L16.5925 11.8187C16.607 11.6425 16.3681 11.713 16.1871 11.9244L16.0278 12.0865C15.9699 12.157 15.8975 12.2275 15.8324 12.2839C15.6948 12.4037 15.55 12.5023 15.3618 12.5798C15.1808 12.6574 14.8985 12.6997 14.6451 12.5728C14.3845 12.453 14.2542 12.2486 14.1456 12.1288C13.9502 11.9103 13.733 11.7553 13.523 11.565C13.3203 11.3818 13.1538 11.1844 13.0525 10.966C13.0235 10.8955 13.009 10.8743 13.067 10.973C13.1104 11.0576 13.342 11.3113 13.6316 11.3677C13.9502 11.4452 14.1963 11.3395 14.2687 11.2831C14.3556 11.2197 14.37 11.1915 14.37 11.1774C14.3917 11.1069 14.247 11.2408 14.1456 11.3042C14.037 11.3747 13.9284 11.4452 13.8054 11.5016C13.5665 11.6214 13.2986 11.7271 12.9946 11.8046L12.524 11.2338C12.6398 11.2549 12.7629 11.2972 12.8932 11.3395L13.0018 11.5721Z" fill="#FFD182"/>
<path d="M13.9357 17.647C13.8922 17.7739 13.8416 17.8866 13.7909 17.9924L13.3276 18.8662L13.3203 17.4215C13.3203 17.1185 13.3565 16.8436 13.4145 16.5828C13.4434 16.456 13.4868 16.3291 13.5303 16.2093C13.5882 16.0825 13.5737 16.019 13.7692 15.7724C13.8561 15.6667 13.9646 15.561 14.1673 15.4482C14.3483 15.3425 14.7248 15.2015 15.1591 15.3143C15.5718 15.4059 15.8975 15.7442 15.9989 15.9345C16.1147 16.1389 16.1364 16.2375 16.1509 16.2798C16.2161 16.5124 16.2233 16.7661 16.1871 17.0339C16.1437 17.2946 16.093 17.5977 16.064 17.8232C16.0423 17.9219 16.0278 17.9501 15.9917 17.9501C15.9555 17.9571 15.941 17.9783 15.9844 17.9571C16.0206 17.936 16.0713 17.8796 16.093 17.8162C16.1075 17.7809 16.1002 17.7527 16.1075 17.7175L16.1147 17.5554C16.1364 17.3299 16.0785 16.9282 16.5129 16.4701L16.8097 16.1529L17.758 16.7027C18.0187 16.8507 18.2503 17.0198 18.4385 17.2171C18.5326 17.3017 18.6485 17.4286 18.7209 17.4849C18.7209 17.4638 18.7209 17.4286 18.6123 17.3228C18.5544 17.2735 18.4603 17.203 18.2793 17.1467C18.1055 17.0903 17.8449 17.0762 17.635 17.1396C17.4106 17.196 17.2368 17.3299 17.1572 17.4004C17.0703 17.4779 17.0486 17.5202 17.0414 17.5131C17.0486 17.4779 17.092 17.4004 17.1282 17.351C17.1934 17.2312 17.2658 17.1255 17.3454 17.0127C17.5047 16.8013 17.6929 16.5969 17.8956 16.4137L19.6982 14.7787L20.0601 16.5335C20.1325 16.8929 20.1253 17.1114 20.1108 17.344C20.0963 17.4356 20.1036 17.5766 20.1543 17.7034C20.2049 17.8373 20.2846 17.9783 20.4873 18.091L20.5597 18.3236C20.4149 18.5562 20.1181 18.683 19.8212 18.7112C19.5244 18.7323 19.2204 18.6901 18.9381 18.5421C18.3879 18.2884 18.0549 17.8655 17.816 17.5906L19.9805 17.7105C19.8936 17.9712 19.7851 18.2179 19.6547 18.4504C19.5823 18.5632 19.5172 18.676 19.4303 18.7817C19.3869 18.8451 19.3579 18.8733 19.2928 18.9508C19.2493 19.0072 19.1842 19.0988 19.0539 19.2257C18.9308 19.3455 18.6992 19.5146 18.4023 19.5921C18.1272 19.6767 17.7942 19.6626 17.5553 19.5851C17.3164 19.5076 17.1572 19.4019 17.0486 19.3173C16.8242 19.1341 16.7445 18.9931 16.6649 18.8662C16.5853 18.7042 16.5491 18.6055 16.4912 18.4716C16.3826 18.2249 16.3102 17.9501 16.2667 17.6611L17.5119 17.8937C17.5264 17.7175 17.2875 17.788 17.1065 17.9994L16.9472 18.1615C16.8893 18.232 16.8169 18.3024 16.7518 18.3588C16.6142 18.4786 16.4694 18.5773 16.2812 18.6548C16.1002 18.7323 15.8179 18.7746 15.5645 18.6478C15.3039 18.528 15.1736 18.3236 15.065 18.2038C14.8696 17.9853 14.6524 17.8303 14.4424 17.64C14.2397 17.4567 14.0732 17.2594 13.9719 17.0409C13.9429 16.9705 13.9284 16.9493 13.9864 17.048C14.0298 17.1326 14.2615 17.3863 14.551 17.4426C14.8696 17.5202 15.1157 17.4145 15.1881 17.3581C15.275 17.2946 15.2894 17.2665 15.2894 17.2524C15.3112 17.1819 15.1664 17.3158 15.065 17.3792C14.9564 17.4497 14.8478 17.5202 14.7248 17.5766C14.4859 17.6964 14.218 17.8021 13.914 17.8796L13.4434 17.3087C13.5592 17.3299 13.6823 17.3722 13.8126 17.4145L13.9357 17.647Z" fill="#FFD182"/>
<path d="M25.4896 9.76788C25.7575 9.21113 26.0543 8.88694 26.4525 8.57685C26.5972 8.49933 26.7637 8.40771 27.0533 8.37952C27.1981 8.36542 27.3791 8.36542 27.589 8.42885C27.799 8.49228 28.0234 8.61913 28.1899 8.78827C28.5519 9.16179 28.5881 9.5635 28.6025 9.77493C28.6098 10.0145 28.5881 10.0991 28.5663 10.2119C28.4722 10.6559 28.0741 11.0576 27.8207 11.4522C27.5528 11.8469 27.4804 12.2627 27.5166 12.7067L26.8941 12.157C27.2198 11.9033 27.3429 11.4593 27.4515 11.1703L28.1899 9.08427L29.2685 11.9949C29.3265 12.157 29.3699 12.312 29.4351 12.4671C29.493 12.6151 29.5726 12.756 29.6378 12.8899L27.77 12.0442C28.0161 11.8962 28.284 11.7764 28.5663 11.6919C28.646 11.6707 28.6749 11.6637 28.8487 11.6073C29.0079 11.565 29.2903 11.4663 29.7029 11.5368C30.1228 11.6002 30.4775 11.868 30.6223 12.0654C30.7816 12.2698 30.8322 12.4318 30.8684 12.5517C30.9408 12.9252 30.9119 13.2423 30.8757 13.5876C30.8178 13.933 30.7237 14.2713 30.521 14.6095L30.2676 14.6659C29.9418 14.4474 29.6884 14.2431 29.4495 14.0528L28.8197 13.5101C28.7908 13.5031 28.7763 13.5383 28.8342 13.644C28.8849 13.7427 29.1093 13.9259 29.3771 13.9753C29.645 14.0246 29.7898 13.9682 29.8115 13.9753C29.8477 13.9753 29.7536 14.0316 29.6957 14.0669C29.4495 14.2219 29.1817 14.3417 28.9066 14.4263L27.285 14.9337L27.0316 13.5736C26.9809 13.2846 26.9737 12.9957 26.9882 12.7067C27.0099 12.4178 27.0388 12.1359 27.1257 11.868L28.9428 12.6856C28.3926 13.0097 27.7338 13.0309 27.2053 13.0591L26.2208 13.1014L26.5828 12.5094C26.8072 12.1429 26.9013 11.7341 26.7637 11.3042C26.6334 10.8743 26.3439 10.4444 26.3149 10.0498C26.3077 9.95112 26.3077 9.82426 26.3149 9.8595C26.3294 9.8595 26.3221 10.0427 26.5393 10.2612C26.7348 10.4656 27.0388 10.4938 27.0895 10.4515C27.1619 10.4233 27.1257 10.381 27.0606 10.374C26.6479 10.3458 26.1339 10.3035 25.591 10.0286L25.4896 9.76788Z" fill="#FCC06D"/>
<path d="M7.12349 21.8262C6.58054 21.495 6.30545 20.9805 6.17514 20.4449C6.05931 19.9093 6.09551 19.3384 6.32716 18.831L6.63846 18.1615L7.28275 18.1192C7.6954 18.091 8.08632 18.2531 8.3035 18.4434C8.52792 18.6337 8.64375 18.8381 8.71614 19.0142C8.86092 19.3878 8.85369 19.6626 8.96952 19.9304C9.17946 20.4519 9.61381 20.7973 10.1568 21.0651L8.92608 21.4738C8.80301 21.206 8.65098 20.9312 8.56411 20.6634C8.46276 20.3885 8.43381 20.1207 8.36865 19.8459L7.85466 17.5061L10.4174 18.9297C10.8083 19.1481 11.192 19.3666 11.5105 19.6697C11.8218 19.9727 12.0969 20.3251 12.3286 20.7197L10.5404 21.6782C10.5694 21.5302 10.5984 21.3893 10.6418 21.2413C10.6997 21.1144 10.6997 20.91 10.8083 20.6352C10.859 20.5013 10.9386 20.3392 11.0689 20.1982C11.1485 20.1207 11.192 20.0925 11.3295 20.0079C11.4526 19.9445 11.5757 19.9234 11.677 19.9375C11.8797 19.9516 12.0173 20.0502 12.1259 20.1771C12.2417 20.2828 12.2706 20.5647 12.1403 20.6563L11.9087 20.5577C11.8435 20.5154 11.8001 20.6352 11.7856 20.6775C11.7711 20.7268 11.7567 20.7902 11.8218 20.8255C12.0607 20.8677 12.1621 20.7479 12.2344 20.762C12.3141 20.7691 12.3792 20.8396 12.4733 20.9876C12.5602 21.1144 12.6326 21.2483 12.6978 21.3752L13.7837 23.4683L10.9097 22.3336C10.4753 22.1645 10.0771 21.9601 9.7224 21.6994C9.36768 21.4386 9.08534 21.1003 8.80301 20.762L10.8517 19.8459C10.7938 20.1207 10.7649 20.3885 10.6635 20.6634C10.5766 20.9382 10.4246 21.206 10.3088 21.4809L9.42559 23.4683L9.0781 21.8896C8.9478 21.3117 8.71614 20.8114 8.26006 20.4801C8.03564 20.3251 7.71711 20.163 7.49269 20.1348C7.38411 20.1207 7.28275 20.1419 7.27552 20.1982C7.26104 20.2546 7.37687 20.3392 7.50717 20.3392L8.47 19.6274C8.39037 19.9375 8.23834 20.2264 8.07184 20.5577C7.89086 20.8959 7.6954 21.2624 7.37687 21.7698L7.12349 21.8262Z" fill="#FCC06D"/>
<path d="M22.8111 25.5685C22.7604 25.6883 22.7097 25.8081 22.6518 25.9067L22.1595 26.7595L22.203 25.3218C22.2102 25.0187 22.2609 24.7439 22.3333 24.4902C22.3695 24.3633 22.4129 24.2435 22.4636 24.1237C22.5287 23.9969 22.5143 23.9334 22.7242 23.6938C22.8183 23.5951 22.9269 23.4894 23.1296 23.3837C23.3106 23.2851 23.6943 23.1582 24.1214 23.2851C24.5268 23.3908 24.8453 23.7431 24.9394 23.9334C25.048 24.1448 25.0625 24.2435 25.0842 24.2788C25.1421 24.5113 25.1421 24.765 25.0915 25.0328C25.0408 25.2936 24.9756 25.5896 24.9394 25.8222C24.9177 25.9208 24.9032 25.949 24.867 25.949C24.8308 25.9561 24.8164 25.9772 24.8598 25.9561C24.896 25.942 24.9539 25.8856 24.9756 25.8151C24.9901 25.7799 24.9829 25.7517 24.9901 25.7165L25.0046 25.5544C25.0335 25.3359 24.9973 24.9271 25.4389 24.4831L25.743 24.1801L26.6696 24.758C26.923 24.9201 27.1474 25.0963 27.3284 25.2936C27.4153 25.3852 27.5311 25.5121 27.5963 25.5755C27.5963 25.5544 27.6035 25.5191 27.4949 25.4134C27.437 25.3641 27.3429 25.2866 27.1691 25.2231C27.0026 25.1597 26.7348 25.1386 26.5248 25.1879C26.3004 25.2372 26.1194 25.3641 26.0398 25.4345C25.9529 25.5121 25.924 25.5473 25.924 25.5473C25.9385 25.5121 25.9819 25.4345 26.0109 25.3852C26.076 25.2654 26.1556 25.1597 26.2353 25.054C26.4018 24.8496 26.5972 24.6523 26.8072 24.469L28.6677 22.8974L28.9645 24.6664C29.0224 25.0258 29.0079 25.2513 28.979 25.4768C28.9645 25.5685 28.9645 25.7094 29.0079 25.8363C29.0514 25.9702 29.131 26.1182 29.3265 26.2309L29.4061 26.4705C29.2541 26.6961 28.95 26.8159 28.6532 26.83C28.3564 26.8441 28.0523 26.7806 27.7772 26.6326C27.2415 26.3578 26.923 25.9208 26.6913 25.646L28.8487 25.8433C28.7546 26.097 28.6315 26.3437 28.4939 26.5692C28.4215 26.682 28.3492 26.7947 28.255 26.8934C28.2116 26.9498 28.1826 26.985 28.1103 27.0555C28.0668 27.1048 27.9944 27.1964 27.8641 27.3162C27.7338 27.436 27.4949 27.5981 27.2053 27.6616C26.9302 27.732 26.5972 27.7109 26.3583 27.6263C26.1194 27.5418 25.9674 27.429 25.8588 27.3374C25.6416 27.1471 25.5693 26.9991 25.4896 26.8722C25.4172 26.7102 25.3883 26.6115 25.3304 26.4705C25.229 26.2168 25.1711 25.942 25.1421 25.653L26.3728 25.9279C26.3945 25.7517 26.1556 25.8151 25.9602 26.0195L25.8009 26.1745C25.743 26.238 25.6706 26.3084 25.5982 26.3648C25.4534 26.4776 25.3086 26.5692 25.1204 26.6467C24.9394 26.7172 24.6499 26.7524 24.4037 26.6185C24.1503 26.4917 24.0273 26.2803 23.9187 26.1604C23.7305 25.9349 23.5205 25.7728 23.3178 25.5755C23.1224 25.3852 22.9631 25.1808 22.8762 24.9553C22.8545 24.8848 22.84 24.8637 22.8907 24.9694C22.9269 25.054 23.1513 25.3147 23.4409 25.3852C23.7522 25.4768 24.0056 25.3782 24.078 25.3288C24.1721 25.2725 24.1865 25.2443 24.1865 25.2231C24.2155 25.1526 24.0562 25.2866 23.9621 25.3359C23.8535 25.4064 23.7377 25.4698 23.6146 25.5262C23.3685 25.6389 23.1006 25.7376 22.7966 25.801L22.3478 25.2161C22.4636 25.2443 22.5867 25.2866 22.7097 25.3359L22.8111 25.5685Z" fill="#FCC06D"/>
<path d="M22.9197 20.9805C22.9776 21.1074 23.021 21.2272 23.05 21.3399L23.3251 22.3266L22.2899 21.2131C22.0799 20.9876 21.9134 20.755 21.7831 20.5224C21.7179 20.4026 21.66 20.2899 21.6166 20.17C21.5732 20.0361 21.5225 19.9939 21.508 19.6838C21.508 19.5499 21.5152 19.3948 21.5804 19.1834C21.6456 18.9861 21.841 18.6407 22.2392 18.4434C22.6084 18.2461 23.0934 18.2884 23.2961 18.3729C23.5205 18.4504 23.6002 18.5139 23.6364 18.5421C23.8391 18.683 23.9983 18.9015 24.1431 19.1411C24.2879 19.3737 24.4472 19.6274 24.5992 19.8036C24.6643 19.8811 24.6861 19.9022 24.6643 19.9093C24.6499 19.9234 24.6426 19.9375 24.6499 19.8881C24.6571 19.8459 24.6354 19.7754 24.592 19.719C24.5702 19.6908 24.5413 19.6767 24.5123 19.6556C24.4834 19.6203 24.4327 19.5851 24.3893 19.5428C24.3024 19.4512 24.1938 19.3455 24.0924 19.1693C23.9983 19.0002 23.897 18.7323 23.9332 18.4223L23.9911 17.8937L25.1566 17.7175C25.381 17.6823 25.591 17.6893 25.8009 17.7034L26.1195 17.7245L26.2787 17.7316L26.3583 17.7386C26.3945 17.7457 26.409 17.7457 26.3945 17.7316C26.3801 17.7175 26.3511 17.6964 26.257 17.6893C26.1701 17.6893 25.9891 17.6682 25.6923 17.8303C25.3955 17.9783 25.1639 18.3659 25.1349 18.6125C25.0987 18.8522 25.1277 18.9156 25.1132 18.8874C25.1204 18.9156 25.0915 18.8099 25.077 18.7042C25.0625 18.5914 25.0336 18.4645 25.0263 18.2884C25.0336 18.1192 24.9756 17.8655 25.1349 17.4215C25.1928 17.2876 25.2797 17.1255 25.4172 16.9493C25.562 16.7731 25.7937 16.604 26.0253 16.5194C26.5176 16.3432 26.8144 16.4489 26.9809 16.4983C27.1547 16.5617 27.256 16.6322 27.3067 16.6886C27.2995 16.7943 27.4153 16.8929 27.5384 16.9846C27.6759 17.0762 27.8424 17.1537 28.1103 17.1114L28.3347 17.2312C28.3998 17.5413 28.2116 17.8796 27.9582 18.0981C27.6976 18.3236 27.3863 18.4716 26.9664 18.4998C26.8144 18.5139 26.7131 18.535 26.6841 18.5703C26.6479 18.5914 26.7276 18.683 27.0316 18.5984C27.1692 18.5491 27.3212 18.4575 27.4008 18.3588C27.4804 18.2672 27.5239 18.1967 27.5528 18.1615C27.6469 17.9078 27.618 17.8655 27.6542 17.8937C27.6831 17.9148 27.6976 17.9783 27.7338 18.0628C27.7628 18.1544 27.7917 18.2461 27.8352 18.4716C27.8352 18.5421 27.8858 18.7042 27.8352 19.0424C27.7917 19.3948 27.5022 19.874 27.1112 20.0714C26.7276 20.2828 26.438 20.2828 26.2498 20.2828C26.0543 20.2758 25.9167 20.2405 25.8082 20.2053C25.743 20.1841 25.7068 20.17 25.6923 20.163L25.6199 20.1278L25.4751 20.0573L25.1928 19.9163C25.0046 19.8247 24.8164 19.726 24.6426 19.5921L25.8733 18.8874C25.8516 18.8099 25.7647 18.7887 25.714 18.8522C25.6634 18.9156 25.6344 19.0354 25.6199 19.1763C25.6127 19.2468 25.5982 19.3243 25.5982 19.4089C25.5982 19.5005 25.591 19.6133 25.5693 19.6979C25.5331 19.8811 25.4751 20.0502 25.3738 20.2335C25.2797 20.4026 25.077 20.607 24.8091 20.6634C24.5413 20.7198 24.3169 20.6493 24.1648 20.6211C23.8825 20.5647 23.6074 20.5929 23.3178 20.5929C23.0283 20.5999 22.7604 20.5858 22.5287 20.4942C22.4564 20.459 22.4274 20.466 22.5432 20.5013C22.6301 20.5436 22.9848 20.5858 23.2382 20.4449C23.5278 20.2969 23.6436 20.0573 23.6653 19.9727C23.6943 19.867 23.6798 19.8388 23.6726 19.8247C23.6436 19.7542 23.6291 19.9516 23.5929 20.0573C23.564 20.1771 23.5205 20.3039 23.4771 20.4238C23.3757 20.6704 23.2454 20.9171 23.0645 21.1708L22.3043 21.0439C22.4129 20.9876 22.5287 20.9382 22.6663 20.8959L22.9197 20.9805Z" fill="#FFD182"/>
<path d="M42.0821 12.1429C41.9591 12.1922 41.836 12.2416 41.7202 12.2698L40.7501 12.5235L41.8432 11.5509C42.0749 11.3465 42.3066 11.1915 42.5455 11.0576C42.6613 10.9941 42.7844 10.9378 42.9074 10.8884C43.045 10.8462 43.0884 10.7898 43.4069 10.7686C43.5445 10.7616 43.6965 10.7686 43.9209 10.8321C44.1236 10.8884 44.4856 11.0646 44.6883 11.4593C44.8982 11.8187 44.8548 12.2838 44.7752 12.4812C44.6955 12.6997 44.6376 12.7842 44.6159 12.8195C44.4856 13.0238 44.2974 13.2 44.0657 13.348C43.8413 13.496 43.5734 13.6581 43.378 13.792C43.2839 13.8484 43.2621 13.8484 43.2332 13.8273C43.2042 13.8061 43.1753 13.8132 43.2187 13.8273C43.2549 13.8414 43.3345 13.8414 43.3997 13.8132C43.4359 13.7991 43.4504 13.7779 43.4866 13.7568L43.6169 13.6511C43.7979 13.5172 44.0729 13.2071 44.71 13.2141H45.1516L45.3688 14.2642C45.4267 14.5532 45.4557 14.8351 45.4339 15.1029C45.4267 15.2297 45.4122 15.3918 45.4195 15.4834C45.4339 15.4693 45.4629 15.4482 45.4701 15.2931C45.4701 15.2156 45.4629 15.1029 45.3833 14.9337C45.3109 14.7716 45.1444 14.5673 44.9561 14.4615C44.7607 14.3417 44.5435 14.2994 44.4349 14.2924C44.3191 14.2853 44.2757 14.2924 44.2684 14.2853C44.3046 14.2713 44.3915 14.2501 44.4494 14.236C44.5797 14.2008 44.7173 14.1796 44.8476 14.1655C45.1227 14.1374 45.3977 14.1374 45.6728 14.1585L48.127 14.3629L47.0338 15.8006C46.8094 16.0895 46.6357 16.2375 46.4474 16.3785C46.3678 16.4348 46.2665 16.5265 46.2013 16.6533C46.1362 16.7802 46.0782 16.9352 46.1289 17.1537L46.0058 17.3722C45.7308 17.4215 45.4339 17.2946 45.2168 17.1044C44.9996 16.907 44.8331 16.6533 44.7534 16.3573C44.5797 15.7865 44.6811 15.265 44.7245 14.9055L46.0855 16.5476C45.8321 16.6604 45.5643 16.7449 45.3036 16.8084C45.1733 16.8366 45.0358 16.8577 44.8982 16.8718C44.8258 16.8788 44.7752 16.8788 44.6811 16.8859C44.6087 16.8929 44.5001 16.907 44.3118 16.8929C44.1309 16.8859 43.8485 16.8295 43.5952 16.6745C43.349 16.5335 43.1318 16.2798 43.0377 16.0543C42.9364 15.8288 42.9074 15.6455 42.9002 15.5046C42.8929 15.2227 42.9436 15.0676 42.9871 14.9267C43.0594 14.7646 43.1101 14.673 43.1753 14.5391C43.2911 14.2924 43.4504 14.0598 43.6458 13.8343L44.2974 14.8914C44.4422 14.7857 44.225 14.6589 43.9426 14.6659L43.711 14.6589C43.6241 14.6659 43.5155 14.6589 43.4287 14.6518C43.2477 14.6307 43.0739 14.5954 42.8857 14.5109C42.712 14.4333 42.4803 14.2572 42.4079 13.9894C42.3283 13.7215 42.3934 13.489 42.4079 13.3339C42.4441 13.045 42.4151 12.7842 42.4224 12.5023C42.4224 12.2345 42.4658 11.9808 42.5672 11.7623C42.6034 11.6989 42.6106 11.6707 42.5672 11.7764C42.531 11.868 42.4948 12.1993 42.6396 12.453C42.7916 12.7349 43.0377 12.8406 43.1246 12.8547C43.2332 12.8758 43.2621 12.8688 43.2766 12.8547C43.349 12.8265 43.1463 12.8054 43.0305 12.7772C42.9074 12.749 42.7771 12.7137 42.6468 12.6644C42.3934 12.5728 42.1328 12.453 41.8722 12.2838L41.9953 11.565C42.0532 11.6637 42.1111 11.7835 42.1545 11.9033L42.0821 12.1429Z" fill="#FFD182"/>
<path d="M22.8038 2.30454C22.7604 2.17769 22.7314 2.05788 22.7097 1.94512L22.5505 0.979607L23.4337 2.1354C23.6219 2.38207 23.7522 2.62168 23.868 2.86835C23.9259 2.98815 23.9621 3.10796 23.9983 3.23482C24.0273 3.36872 24.078 3.41805 24.0707 3.72815C24.0635 3.86205 24.0418 4.01005 23.9477 4.22147C23.868 4.41176 23.6508 4.74299 23.231 4.90508C22.8473 5.06718 22.3695 4.98261 22.174 4.89099C21.9568 4.79232 21.8772 4.7289 21.841 4.70071C21.6456 4.55271 21.4863 4.34833 21.356 4.11576C21.2329 3.88319 21.0954 3.60834 20.9723 3.40396C20.9289 3.31234 20.9216 3.28415 20.9506 3.26301C20.9795 3.23482 20.9723 3.21368 20.9506 3.24891C20.9289 3.28415 20.9216 3.36167 20.9506 3.4251C20.9578 3.46034 20.9795 3.48148 21.0013 3.50967L21.0954 3.64357C21.2184 3.83386 21.5008 4.12985 21.4356 4.74299L21.3922 5.16584L20.299 5.27156C19.995 5.29975 19.7127 5.2927 19.4376 5.25041C19.3073 5.22927 19.1407 5.20108 19.0466 5.19403C19.0611 5.20813 19.0828 5.24337 19.2349 5.25746C19.3145 5.26451 19.4303 5.26451 19.6113 5.20813C19.785 5.15879 20.0095 5.0108 20.1398 4.8487C20.2846 4.67251 20.3497 4.46814 20.3642 4.36242C20.3859 4.24966 20.3787 4.20738 20.3859 4.20033C20.4004 4.23557 20.4149 4.32014 20.4149 4.38357C20.4366 4.51747 20.4438 4.64432 20.4511 4.77823C20.4511 5.04603 20.4221 5.31384 20.3714 5.58165L19.9154 7.93552L18.5544 6.73039C18.2793 6.48373 18.149 6.3005 18.0259 6.10316C17.9825 6.01859 17.8883 5.91288 17.7725 5.83536C17.6494 5.75783 17.4974 5.68736 17.273 5.71555L17.0631 5.5746C17.0413 5.30679 17.2006 5.03194 17.4178 4.83461C17.6422 4.64432 17.9173 4.51042 18.2286 4.46109C18.8295 4.35538 19.3507 4.50337 19.7127 4.5809L17.8956 5.72965C17.8087 5.46889 17.7436 5.20813 17.7074 4.94737C17.6929 4.81347 17.6856 4.68661 17.6856 4.55271C17.6856 4.48223 17.6856 4.4329 17.6929 4.33423C17.6929 4.26376 17.6929 4.151 17.7218 3.97481C17.7508 3.80567 17.8304 3.53081 18.0187 3.30529C18.1924 3.08682 18.4675 2.89654 18.7064 2.82606C18.9453 2.74854 19.1335 2.74149 19.2783 2.74854C19.5679 2.76968 19.7199 2.84016 19.8647 2.89654C20.0239 2.98111 20.1108 3.04453 20.2411 3.11501C20.48 3.24891 20.7044 3.43215 20.9144 3.64357L19.7633 4.17214C19.8574 4.32719 20.0095 4.12281 20.0239 3.855L20.0529 3.63653C20.0529 3.55196 20.0674 3.44624 20.0891 3.36167C20.1253 3.18549 20.1832 3.02339 20.2846 2.85425C20.3859 2.69216 20.5886 2.48778 20.8637 2.44549C21.146 2.39616 21.3777 2.48073 21.537 2.51597C21.8265 2.5794 22.1016 2.5794 22.384 2.60759C22.6591 2.63578 22.9124 2.70625 23.1296 2.82606C23.1948 2.86835 23.2165 2.87539 23.1151 2.82606C23.0283 2.78378 22.688 2.7133 22.4202 2.83311C22.1161 2.95292 21.9858 3.17844 21.9568 3.26301C21.9206 3.36167 21.9279 3.39691 21.9424 3.41101C21.9641 3.48148 22.0003 3.28415 22.0437 3.18549C22.0872 3.06568 22.1378 2.94587 22.1957 2.82606C22.3188 2.58644 22.4636 2.35388 22.6663 2.11426L23.3902 2.30454C23.2816 2.35388 23.1586 2.38911 23.0283 2.42435L22.8038 2.30454Z" fill="#FFD182"/>
<path d="M42.6106 25.3006C33.2212 30.5793 17.9535 30.5511 8.5062 25.2372C4.05402 22.7353 1.70124 19.5076 1.42615 16.2375C1.12934 19.9234 3.48211 23.6656 8.5062 26.4917C17.9535 31.7985 33.2212 31.8267 42.6106 26.5551C47.3162 23.9052 49.6545 20.4308 49.6183 16.9493V16.9423C49.6183 16.7238 49.6038 16.5124 49.5965 16.3009C49.3721 19.571 47.0483 22.8058 42.6106 25.3006Z" fill="#F7A75C"/>
<path d="M10.6708 11.3324C9.56314 11.9385 8.17319 11.4804 8.17319 11.4804C8.17319 11.4804 8.57859 10.0286 9.6862 9.42256C10.7938 8.81647 11.3295 9.06313 11.6046 9.5917C11.8797 10.1203 11.7784 10.7263 10.6708 11.3324Z" fill="#FFDD9E"/>
<path d="M31.6286 14.081C32.6565 13.341 34.1044 13.6158 34.1044 13.6158C34.1044 13.6158 33.88 15.0958 32.852 15.8358C31.824 16.5758 31.2521 16.3996 30.9191 15.9133C30.5716 15.4341 30.6006 14.821 31.6286 14.081Z" fill="#FFDD9E"/>
<path d="M24.7874 1.48703C26.0253 1.40951 27.0388 2.4455 27.0388 2.4455C27.0388 2.4455 26.0398 3.60129 24.8091 3.67881C23.5712 3.75634 23.2092 3.28415 23.2092 2.67806C23.2092 2.07198 23.5567 1.56455 24.7874 1.48703Z" fill="#FFDD9E"/>
<path d="M42.8712 6.07498C43.9064 6.68811 44.1598 8.13286 44.1598 8.13286C44.1598 8.13286 42.7192 8.59095 41.684 7.97781C40.6415 7.36467 40.6126 6.76563 40.9383 6.23707C41.2641 5.7085 41.8288 5.46184 42.8712 6.07498Z" fill="#FFDD9E"/>
<path d="M39.7076 15.8358C39.0271 16.9 37.5576 17.2101 37.5576 17.2101C37.5576 17.2101 37.1956 15.7935 37.8761 14.7223C38.5566 13.6581 39.1647 13.5947 39.6714 13.9048C40.171 14.2149 40.3881 14.7716 39.7076 15.8358Z" fill="#FFDD9E"/>
<path d="M26.742 17.7739C27.9582 17.9501 28.7184 19.1834 28.7184 19.1834C28.7184 19.1834 27.5166 20.1207 26.3004 19.9445C25.0842 19.7683 24.8381 19.2257 24.9539 18.6266C25.0842 18.0276 25.5258 17.5906 26.742 17.7739Z" fill="#FFDD9E"/>
<path d="M27.2633 12.2204C26.0977 12.7067 24.7802 12.0865 24.7802 12.0865C24.7802 12.0865 25.3521 10.6841 26.5104 10.2048C27.6759 9.71855 28.1754 10.0357 28.3854 10.5924C28.5953 11.1421 28.4288 11.7341 27.2633 12.2204Z" fill="#FFDD9E"/>
<path d="M30.2241 5.20812C29.0586 5.6944 27.7411 5.07422 27.7411 5.07422C27.7411 5.07422 28.313 3.67176 29.4713 3.19253C30.6368 2.70625 31.1363 3.02339 31.3462 3.58014C31.5489 4.12985 31.3824 4.72184 30.2241 5.20812Z" fill="#FFDD9E"/>
<path d="M22.1813 6.75859C23.2454 7.33648 23.5423 8.76713 23.5423 8.76713C23.5423 8.76713 22.1161 9.27455 21.0519 8.69666C19.9877 8.11876 19.9371 7.51972 20.2411 6.98411C20.5597 6.45554 21.1171 6.18774 22.1813 6.75859Z" fill="#FFDD9E"/>
<path d="M17.6784 2.57235C18.8439 2.10017 20.1543 2.7274 20.1543 2.7274C20.1543 2.7274 19.5751 4.12281 18.4023 4.59499C17.2368 5.06718 16.7373 4.75004 16.5346 4.19328C16.3391 3.63653 16.5129 3.05158 17.6784 2.57235Z" fill="#FFDD9E"/>
<path d="M21.4863 15.9133C20.2918 15.6455 19.6258 14.3558 19.6258 14.3558C19.6258 14.3558 20.8927 13.5031 22.0799 13.7709C23.2744 14.0387 23.4843 14.5954 23.3178 15.1874C23.1586 15.7794 22.6808 16.1811 21.4863 15.9133Z" fill="#FFDD9E"/>
<path d="M30.7092 9.18998C29.5147 8.92218 28.8487 7.63248 28.8487 7.63248C28.8487 7.63248 30.1155 6.77973 31.3028 7.04753C32.4973 7.31534 32.7072 7.8721 32.5407 8.46409C32.3742 9.06313 31.8964 9.46484 30.7092 9.18998Z" fill="#FFDD9E"/>
<path d="M11.3874 6.64583C10.1929 6.37802 9.52693 5.08832 9.52693 5.08832C9.52693 5.08832 10.7938 4.23557 11.9811 4.50338C13.1755 4.77118 13.3855 5.32794 13.219 5.91993C13.0597 6.51897 12.5819 6.92068 11.3874 6.64583Z" fill="#FFDD9E"/>
<path d="M35.878 5.68031C35.0383 4.82052 35.1614 3.33349 35.1614 3.33349C35.1614 3.33349 36.6527 3.24187 37.4924 4.10167C38.3322 4.96147 38.2163 5.56051 37.7675 5.99745C37.3259 6.44145 36.7178 6.54011 35.878 5.68031Z" fill="#FFDD9E"/>
<path d="M41.8215 9.55645C42.9653 9.97226 43.4648 11.3465 43.4648 11.3465C43.4648 11.3465 42.1111 12.0442 40.9745 11.6284C39.8307 11.2126 39.6932 10.6277 39.9321 10.0568C40.1637 9.48598 40.6777 9.14065 41.8215 9.55645Z" fill="#FFDD9E"/>
<path d="M34.1696 8.59799C35.1831 7.82981 36.6309 8.07647 36.6309 8.07647C36.6309 8.07647 36.4427 9.55645 35.4364 10.3246C34.4229 11.0928 33.851 10.9237 33.4963 10.4515C33.1561 9.97226 33.1633 9.36617 34.1696 8.59799Z" fill="#FFDD9E"/>
<path d="M13.5086 14.1655C14.6741 13.7004 15.9844 14.3347 15.9844 14.3347C15.9844 14.3347 15.398 15.7301 14.2325 16.1952C13.067 16.6604 12.5674 16.3432 12.3647 15.7865C12.162 15.2227 12.3358 14.6307 13.5086 14.1655Z" fill="#FFDD9E"/>
<path d="M16.3681 9.8595C17.5336 9.39436 18.8439 10.0286 18.8439 10.0286C18.8439 10.0286 18.2576 11.4241 17.092 11.8892C15.9265 12.3543 15.427 12.0372 15.2243 11.4804C15.0216 10.9166 15.1953 10.3246 16.3681 9.8595Z" fill="#FFDD9E"/>
</g>
<defs>
<clipPath id="clip0">
<rect width="52" height="47" fill="white"/>
</clipPath>
</defs>
</svg>
