<svg width="96" height="109" viewBox="0 0 96 109" fill="none" xmlns="http://www.w3.org/2000/svg">
<path d="M57.594 108.6C55.2562 108.6 53.0907 108.096 51.5002 107.183L3.0852 79.4572C1.31263 78.4398 0.335327 76.9756 0.335327 75.3211C0.335327 73.4195 1.66715 71.5653 4.00502 70.2247L29.6833 55.5153C31.8295 54.2887 34.6465 53.5756 37.4251 53.5756C39.763 53.5756 41.9284 54.0796 43.5189 54.9924L91.9339 82.7281C93.7065 83.7455 94.6838 85.2098 94.6838 86.8642C94.6838 88.7659 93.352 90.62 91.0141 91.9607L65.3358 106.67C63.18 107.897 60.3631 108.6 57.594 108.6Z" fill="#E3E5EF"/>
<path d="M72.0334 37.5627C72.0334 34.4345 69.8105 30.6311 67.0606 29.0528C65.6617 28.2541 64.4065 28.1875 63.5059 28.7295L61.3405 29.9656L62.1261 31.3062C62.107 31.4869 62.0974 31.677 62.0974 31.8767C62.0974 35.005 64.3203 38.8083 67.0702 40.3867C67.2618 40.5008 67.4534 40.5863 67.6355 40.6719L68.4116 41.9841L70.4716 40.7955C70.5578 40.748 70.644 40.7004 70.7207 40.6529L70.8069 40.6053V40.5958C71.5543 40.0349 72.0334 38.9984 72.0334 37.5627Z" fill="#4E4145"/>
<path d="M68.4228 41.9576C70.3506 40.8391 70.3308 37.246 68.3785 33.932C66.4262 30.6181 63.2808 28.8383 61.3529 29.9567C59.4251 31.0751 59.4449 34.6683 61.3972 37.9823C63.3495 41.2962 66.495 43.076 68.4228 41.9576Z" fill="#4E4145"/>
<path d="M68.2532 41.8653C70.1353 40.7733 70.1153 37.2641 68.2084 34.0273C66.3015 30.7904 63.2299 29.0516 61.3477 30.1435C59.4656 31.2354 59.4857 34.7446 61.3925 37.9815C63.2994 41.2184 66.3711 42.9572 68.2532 41.8653Z" fill="#342C2E"/>
<path d="M62.4136 34.6341C62.4136 36.1364 63.4867 37.9715 64.8089 38.7322C66.1312 39.4929 67.2043 38.8843 67.2043 37.382C67.2043 35.8797 66.1312 34.0446 64.8089 33.2839C63.4771 32.5233 62.4136 33.1223 62.4136 34.6341Z" fill="#E83A35"/>
<path d="M35.298 59.2797C35.298 59.2797 10.712 74.4644 10.4917 76.1949C10.2713 77.9255 54.3843 103.455 56.6838 103.455C58.9833 103.455 83.7705 89.9249 84.1921 87.3292C84.6137 84.7429 35.298 59.2797 35.298 59.2797Z" fill="#980500"/>
<path d="M91.0141 55.9042C91.0141 55.9042 46.8053 30.0131 42.5895 27.7406C41.1714 26.9799 39.7342 26.5901 38.4599 26.4285C38.3257 26.4094 38.1916 26.3904 38.067 26.3809C37.8754 26.3619 37.6838 26.3524 37.5113 26.3334C37.3867 26.3239 37.2622 26.3144 37.1376 26.3144C36.8693 26.2953 36.6202 26.2953 36.3807 26.3049C36.2849 26.3049 36.1986 26.3049 36.1124 26.3144C35.7579 26.3239 35.4417 26.3524 35.1638 26.3809C35.068 26.3999 34.9722 26.4094 34.886 26.419C34.6273 26.457 34.4069 26.495 34.2823 26.5235L35.4417 63.2636L35.6333 63.1591C36.2082 62.8358 37.0131 62.6931 37.7029 62.7407C37.7987 62.7407 37.8946 62.7597 37.9808 62.7692C38.067 62.7787 38.1533 62.7977 38.2491 62.8263C38.3257 62.8453 38.412 62.8643 38.479 62.9023C38.5557 62.9213 38.6323 62.9594 38.6994 62.9974L82.3716 88.0233C82.6974 88.0043 83.0423 87.9852 83.3681 87.9757L84.9969 88.898C84.9969 88.898 85.064 88.5462 85.179 87.9282C85.2652 87.9282 85.3514 87.9187 85.4473 87.9187C85.3802 87.8331 85.3035 87.757 85.2173 87.681C86.2425 82.2137 90.3913 60.2305 91.0332 59.2416C91.7518 58.0911 91.0141 55.9042 91.0141 55.9042ZM43.7584 55.3813C43.7392 56.1039 43.1069 56.3606 42.3499 55.9518L41.066 55.2481C40.3091 54.8298 39.7054 53.9075 39.7246 53.1658L39.7534 51.6065C39.7725 50.8743 40.4145 50.6081 41.1714 51.036L42.4649 51.7491C43.2218 52.1674 43.8255 53.0993 43.8063 53.8409L43.7584 55.3813ZM44.0171 47.5084C43.9883 48.2595 43.3464 48.5163 42.5703 48.0979L41.2768 47.3753C40.5103 46.9569 39.8971 46.0061 39.9162 45.2549L39.9546 43.6385C39.9737 42.8873 40.6157 42.6021 41.4014 43.0395L42.7044 43.7621C43.4805 44.1805 44.0842 45.1503 44.065 45.9015L44.0171 47.5084ZM44.2662 39.3788C44.2471 40.1585 43.5955 40.4342 42.8098 40.0063L41.4876 39.2837C40.7019 38.8558 40.0791 37.8765 40.1079 37.0968L40.1462 35.4328C40.1654 34.6436 40.8169 34.3584 41.6122 34.7863L42.944 35.5184C43.7297 35.9558 44.3524 36.9446 44.3237 37.7243L44.2662 39.3788ZM50.178 58.9088C50.1396 59.6315 49.5073 59.8787 48.7503 59.4603L47.4664 58.7567C46.7095 58.3383 46.1154 57.416 46.1442 56.6934L46.2017 55.1435C46.2208 54.4019 46.8724 54.1452 47.6293 54.5731L48.9228 55.2862C49.6797 55.7045 50.2738 56.6364 50.245 57.3685L50.178 58.9088ZM50.5229 51.093C50.4846 51.8347 49.8426 52.0914 49.0761 51.673L47.773 50.9504C47.0065 50.532 46.4029 49.5812 46.4316 48.8395L46.4891 47.2326C46.5083 46.4815 47.1694 46.2057 47.9359 46.6336L49.2486 47.3562C50.0247 47.7841 50.6283 48.7445 50.5995 49.4956L50.5229 51.093ZM50.8966 43.0205C50.8582 43.7906 50.1971 44.0664 49.421 43.6385L48.0988 42.9159C47.3131 42.4785 46.6999 41.5086 46.7286 40.7385L46.7861 39.084C46.8149 38.2948 47.4856 38.0191 48.2617 38.447L49.5935 39.1791C50.3888 39.607 50.9924 40.5863 50.9541 41.3755L50.8966 43.0205ZM56.5879 62.4364C56.54 63.159 55.8981 63.4063 55.1411 62.9784L53.8572 62.2748C53.1003 61.8564 52.5063 60.9341 52.5446 60.221L52.6212 58.6901C52.6596 57.958 53.3111 57.7108 54.068 58.1196L55.3615 58.8328C56.1185 59.2511 56.7125 60.183 56.6646 60.9151L56.5879 62.4364ZM57.0383 54.6776C56.9999 55.4193 56.3388 55.676 55.5723 55.2481L54.2692 54.5255C53.5123 54.1071 52.9087 53.1563 52.947 52.4147L53.0332 50.8268C53.062 50.0756 53.7231 49.8094 54.4992 50.2373L55.8118 50.9599C56.5879 51.3878 57.182 52.3386 57.1341 53.0802L57.0383 54.6776ZM57.5078 46.6621C57.4694 47.4323 56.7987 47.6985 56.0226 47.2707L54.7004 46.5385C53.9147 46.1107 53.3207 45.1408 53.3494 44.3706L53.4261 42.7352C53.4644 41.946 54.1351 41.6703 54.9304 42.1077L56.2622 42.8398C57.0574 43.2772 57.6515 44.247 57.6132 45.0267L57.5078 46.6621ZM63.0075 65.964C62.95 66.6676 62.2985 66.9148 61.5416 66.4965L60.2576 65.7928C59.5007 65.3745 58.9258 64.4617 58.9641 63.7391L59.06 62.2082C59.1079 61.4856 59.7594 61.2384 60.5259 61.6662L61.8194 62.3699C62.5763 62.7882 63.1608 63.7105 63.1033 64.4332L63.0075 65.964ZM63.5632 58.2623C63.5057 58.9944 62.835 59.2511 62.0685 58.8233L60.775 58.1101C60.0085 57.6918 59.4241 56.7409 59.4624 56.0088L59.5678 54.4209C59.6157 53.6793 60.2864 53.4225 61.0529 53.8504L62.3656 54.5731C63.1416 55.0009 63.7261 55.9518 63.6782 56.6839L63.5632 58.2623ZM64.1381 50.3133C64.0806 51.0645 63.4099 51.3307 62.6243 50.9028L61.302 50.1802C60.5163 49.7523 59.9223 48.792 59.9798 48.0313L60.0756 46.4054C60.1235 45.6257 60.8038 45.35 61.599 45.7874L62.9309 46.5195C63.7165 46.9569 64.3106 47.9267 64.2531 48.6969L64.1381 50.3133ZM69.4175 69.4916C69.36 70.1952 68.6989 70.4329 67.942 70.0145L66.6676 69.3204C65.9011 68.9021 65.3358 67.9893 65.3933 67.2762L65.5083 65.7548C65.5658 65.0417 66.2269 64.7945 66.9838 65.2128L68.2773 65.926C69.0438 66.3443 69.6091 67.2666 69.5516 67.9798L69.4175 69.4916ZM70.069 61.8469C70.002 62.5695 69.3408 62.8263 68.5647 62.3984L67.2617 61.6853C66.4952 61.2669 65.9107 60.3256 65.9682 59.5934L66.0832 58.0246C66.1406 57.2924 66.8113 57.0262 67.5874 57.4541L68.9001 58.1767C69.6762 58.6046 70.2511 59.5459 70.1936 60.2875L70.069 61.8469ZM70.7589 53.955C70.6918 54.7062 70.0115 54.9629 69.2259 54.535L67.9036 53.8124C67.118 53.3845 66.5431 52.4242 66.591 51.673L66.7155 50.0566C66.7826 49.2959 67.4725 49.0202 68.2581 49.4576L69.59 50.1897C70.3756 50.6271 70.9697 51.597 70.9026 52.3671L70.7589 53.955ZM75.8275 73.0192C75.7508 73.7133 75.0897 73.951 74.3328 73.5326L73.0489 72.829C72.2919 72.4106 71.7266 71.4978 71.7937 70.7942L71.9374 69.2919C72.0045 68.5788 72.6752 68.3411 73.4417 68.7594L74.7352 69.4726C75.5017 69.8909 76.0574 70.8132 75.9904 71.5264L75.8275 73.0192ZM76.594 65.4315C76.5173 66.1542 75.8371 66.4014 75.0705 65.9735L73.7675 65.2509C73.0105 64.8325 72.4357 63.9007 72.4931 63.1686L72.6369 61.6092C72.7039 60.8771 73.3938 60.6203 74.1603 61.0482L75.473 61.7708C76.2586 62.1987 76.824 63.14 76.7473 63.8722L76.594 65.4315ZM77.3701 57.5967C77.2934 58.3478 76.6036 58.5951 75.8179 58.1672L74.4957 57.4446C73.71 57.0167 73.1351 56.0563 73.2022 55.3052L73.3459 53.6983C73.4225 52.9376 74.1124 52.6714 74.8981 53.0993L76.2299 53.8314C77.0252 54.2688 77.6001 55.2386 77.5234 55.9898L77.3701 57.5967ZM82.4099 75.0539L82.2375 76.5468C82.1608 77.2409 81.4805 77.4691 80.7236 77.0507L79.4397 76.3471C78.6828 75.9287 78.127 75.0254 78.2037 74.3313L78.3666 72.8385C78.4432 72.1349 79.1235 71.8972 79.8804 72.3251L81.1739 73.0287C81.9404 73.447 82.4962 74.3503 82.4099 75.0539ZM83.2818 67.4663L83.1094 69.0162C83.0231 69.7293 82.3333 69.967 81.5668 69.5486L80.2637 68.826C79.4972 68.4076 78.9414 67.4853 79.0085 66.7627L79.181 65.2128C79.2576 64.4902 79.9379 64.2335 80.7236 64.6614L82.0363 65.384C82.8028 65.8119 83.3681 66.7532 83.2818 67.4663ZM84.1825 59.6505L84.0005 61.2384C83.9142 61.98 83.2148 62.2367 82.4291 61.7994L81.1069 61.0767C80.3212 60.6393 79.7559 59.698 79.8325 58.9469L80.005 57.359C80.0816 56.5983 80.7811 56.3416 81.5763 56.779L82.9082 57.5016C83.6938 57.939 84.2687 58.8898 84.1825 59.6505Z" fill="#E83A35"/>
<path d="M34.2728 26.514C34.1483 26.5426 34.0812 26.5616 34.0812 26.5616C34.0812 26.5616 8.25921 41.0998 6.16087 42.3644C4.05296 43.6385 3.31519 45.6828 3.31519 45.6828L10.003 76.7845L11.9193 75.5959C12.3409 75.7386 12.7721 75.8622 13.2128 75.9858L35.4322 63.2541L34.2728 26.514ZM9.46647 49.4291L9.16945 47.8126C9.02572 47.0425 9.5527 46.0441 10.3288 45.6067L11.651 44.8461C12.4367 44.3992 13.1649 44.6749 13.2799 45.4641L13.5386 47.109C13.6536 47.8697 13.1362 48.83 12.3696 49.2674L11.0762 50.0091C10.3192 50.4274 9.59103 50.1802 9.46647 49.4291ZM10.8366 57.1023L10.5683 55.619C10.4438 54.9154 10.942 53.993 11.6894 53.5652L12.9445 52.8425C13.6919 52.4147 14.3818 52.6524 14.4871 53.3655L14.7171 54.8678C14.8225 55.5619 14.3243 56.4557 13.5865 56.8741L12.3601 57.5777C11.651 57.996 10.9612 57.7869 10.8366 57.1023ZM14.7554 63.8627L13.5769 64.5378C12.8775 64.9371 12.2259 64.7469 12.1109 64.1194L11.8618 62.7597C11.7469 62.1131 12.2259 61.2574 12.935 60.839L14.1422 60.1449C14.8608 59.7361 15.5219 59.9452 15.6178 60.5918L15.8285 61.9705C15.9339 62.6171 15.4453 63.4538 14.7554 63.8627ZM15.9435 45.7113L15.7136 44.0569C15.6082 43.2677 16.1352 42.2598 16.9208 41.8129L18.2431 41.0617C19.0288 40.6149 19.7378 40.9096 19.824 41.7083L20.0156 43.3913C20.1019 44.171 19.5653 45.1408 18.7988 45.5782L17.5053 46.3198C16.7484 46.7382 16.0585 46.4815 15.9435 45.7113ZM17.0358 53.5462L16.825 52.0343C16.7196 51.3117 17.2466 50.3799 17.994 49.952L19.2491 49.2294C19.9965 48.8015 20.6672 49.0582 20.7534 49.7809L20.9259 51.3117C21.0025 52.0248 20.4851 52.9281 19.7569 53.3465L18.5305 54.0501C17.8023 54.478 17.1412 54.2498 17.0358 53.5462ZM20.6384 60.4777L19.4599 61.1528C18.7605 61.5522 18.1281 61.3525 18.0419 60.7154L17.8407 59.3272C17.7544 58.6616 18.2527 57.7964 18.9713 57.3875L20.1689 56.6934C20.8876 56.2845 21.5295 56.5032 21.6062 57.1688L21.769 58.576C21.8361 59.2321 21.3379 60.0784 20.6384 60.4777ZM22.4302 41.9936L22.2577 40.3106C22.181 39.5024 22.7368 38.4755 23.5224 38.0286L24.8447 37.2774C25.6304 36.8305 26.3106 37.1348 26.3777 37.9525L26.5023 39.664C26.5693 40.4532 25.9945 41.4421 25.2375 41.8795L23.9536 42.6211C23.1871 43.049 22.5068 42.7827 22.4302 41.9936ZM23.235 49.9996L23.0817 48.4497C23.005 47.7176 23.5512 46.7667 24.2985 46.3389L25.5537 45.6162C26.3011 45.1979 26.9526 45.4546 27.0005 46.1962L27.1251 47.7651C27.1826 48.4877 26.6364 49.41 25.9082 49.8284L24.6818 50.532C23.9536 50.9504 23.3021 50.7127 23.235 49.9996ZM26.531 57.1023L25.3525 57.7774C24.6531 58.1767 24.0303 57.9675 23.9728 57.3114L23.8291 55.8947C23.762 55.2291 24.2794 54.3353 24.998 53.936L26.2052 53.2419C26.9143 52.8235 27.5371 53.0612 27.585 53.7363L27.6904 55.1721C27.7479 55.8377 27.2305 56.7029 26.531 57.1023ZM28.9072 38.2853L28.8018 36.5643C28.7539 35.7466 29.348 34.7007 30.1241 34.2538L31.4463 33.5026C32.2224 33.0557 32.8835 33.379 32.9218 34.2158L32.9985 35.9558C33.0272 36.764 32.4428 37.7719 31.6763 38.2093L30.3828 38.9414C29.6162 39.3693 28.9551 39.084 28.9072 38.2853ZM29.4246 46.4434L29.3288 44.8651C29.2809 44.1139 29.8366 43.1536 30.584 42.7257L31.8391 42.0031C32.5865 41.5752 33.2189 41.8509 33.2572 42.6021L33.3147 44.1995C33.353 44.9411 32.7781 45.8729 32.0595 46.2913L30.8331 46.9949C30.1049 47.4228 29.4821 47.1756 29.4246 46.4434ZM32.4236 53.7268L31.2451 54.4019C30.5456 54.8013 29.9516 54.5826 29.9133 53.917L29.8175 52.4717C29.7695 51.7871 30.3157 50.8838 31.0247 50.4845L32.232 49.7904C32.941 49.3815 33.5542 49.6192 33.5734 50.3228L33.6405 51.7871C33.6692 52.4527 33.1231 53.3275 32.4236 53.7268Z" fill="#EF534F"/>
<path d="M38.4599 26.419V62.8928C38.3832 62.8643 38.3066 62.8358 38.2299 62.8168C38.1437 62.7882 38.0574 62.7692 37.9616 62.7597C37.8754 62.7407 37.7796 62.7312 37.6838 62.7312C36.9843 62.6836 36.1795 62.8168 35.6142 63.1495L35.4225 63.2541L34.2632 26.514C34.3973 26.4855 34.6081 26.4475 34.8668 26.4094C34.953 26.3904 35.0489 26.3904 35.1447 26.3714C35.4225 26.3429 35.7387 26.3144 36.0932 26.3049C36.1795 26.2953 36.2657 26.2953 36.3615 26.2953C36.6011 26.2858 36.8598 26.2858 37.1185 26.3049C37.243 26.3049 37.3676 26.3144 37.4921 26.3239C37.6646 26.3429 37.8562 26.3524 38.0479 26.3714C38.1916 26.3904 38.3353 26.4094 38.4599 26.419Z" fill="#E8433F"/>
<path d="M61.2925 50.1707L62.6147 50.8933C63.3429 51.2927 63.9848 51.0835 64.1094 50.4369C63.9465 50.4084 63.7645 50.3514 63.5824 50.2468L62.2602 49.5241C61.4745 49.0963 60.8805 48.1264 60.9379 47.3658L61.0338 45.7398C61.0338 45.6828 61.0529 45.6352 61.0625 45.5877C60.5164 45.5021 60.1139 45.7969 60.0756 46.3864L59.9798 48.0123C59.9223 48.7825 60.5164 49.7428 61.2925 50.1707Z" fill="#BA2420"/>
<path d="M67.2713 61.6853L68.5744 62.3984C69.3026 62.7977 69.9446 62.5886 70.0595 61.942C69.8966 61.9135 69.7146 61.8564 69.5325 61.7518L68.2295 61.0387C67.463 60.6108 66.8881 59.679 66.936 58.9469L67.0605 57.378C67.0605 57.34 67.0797 57.3019 67.0797 57.2639C66.5431 57.1783 66.1407 57.4541 66.0928 58.0246L65.9682 59.5934C65.9203 60.3256 66.4952 61.2574 67.2713 61.6853Z" fill="#BA2420"/>
<path d="M60.7654 58.1101L62.0685 58.8233C62.7967 59.2226 63.4291 59.0134 63.544 58.3669C63.3812 58.3383 63.2087 58.2813 63.0362 58.1862L61.7331 57.4731C60.9666 57.0547 60.3822 56.1134 60.4301 55.3718L60.5259 53.7839C60.5259 53.7458 60.545 53.7078 60.545 53.6698C60.0085 53.5747 59.6061 53.8599 59.5582 54.4304L59.4623 56.0183C59.4144 56.7409 59.9989 57.6823 60.7654 58.1101Z" fill="#BA2420"/>
<path d="M67.9036 53.8124L69.2258 54.535C69.9636 54.9344 70.596 54.7347 70.7301 54.0786C70.5577 54.0501 70.3756 53.993 70.184 53.8885L68.8617 53.1658C68.0761 52.7379 67.4916 51.7776 67.5491 51.0169L67.6736 49.4005C67.6736 49.3435 67.6928 49.2959 67.7024 49.2484C67.1658 49.1723 66.7538 49.4576 66.7155 50.0471L66.5909 51.6635C66.5334 52.4242 67.1179 53.375 67.9036 53.8124Z" fill="#BA2420"/>
<path d="M54.6908 46.5385L56.013 47.2707C56.7412 47.67 57.364 47.4608 57.479 46.8048C57.3161 46.7762 57.1436 46.7192 56.9712 46.6241L55.6489 45.892C54.8728 45.4641 54.2692 44.4942 54.3075 43.7241L54.3842 42.0886C54.3842 42.0316 54.4033 41.9745 54.4129 41.927C53.8668 41.8319 53.4548 42.1267 53.426 42.7352L53.3494 44.3706C53.3111 45.1408 53.9147 46.1107 54.6908 46.5385Z" fill="#BA2420"/>
<path d="M74.5052 57.4351L75.8275 58.1672C76.5557 58.5665 77.2072 58.3669 77.3509 57.7203C77.1785 57.6918 76.9868 57.6347 76.7856 57.5206L75.4634 56.7885C74.6873 56.3606 74.1028 55.4098 74.1795 54.6586L74.3232 53.0517C74.3328 52.9947 74.3423 52.9566 74.3519 52.9091C73.8154 52.833 73.4129 53.1278 73.3555 53.6983L73.2117 55.3052C73.1447 56.0563 73.7196 57.0072 74.5052 57.4351Z" fill="#BA2420"/>
<path d="M73.7674 65.2604L75.0705 65.9735C75.7987 66.3729 76.4502 66.1637 76.5748 65.5171C76.4023 65.4886 76.2203 65.4315 76.0382 65.3269L74.7352 64.6138C73.9687 64.1955 73.4033 63.2636 73.4608 62.5315L73.6046 60.9721C73.6046 60.9341 73.6237 60.9056 73.6237 60.8676C73.0967 60.782 72.6847 61.0672 72.6368 61.6187L72.4931 63.1781C72.426 63.9007 73.0009 64.8325 73.7674 65.2604Z" fill="#BA2420"/>
<path d="M80.2637 68.8355L81.5668 69.5486C82.3045 69.9575 82.9657 69.7483 83.0902 69.1017C82.9177 69.0732 82.7261 69.0162 82.5249 68.9021L81.2218 68.1889C80.4553 67.7611 79.89 66.8388 79.9667 66.1161L80.1295 64.5663C80.1295 64.5283 80.1487 64.4997 80.1487 64.4617C79.6217 64.3856 79.2193 64.6614 79.1618 65.2033L78.9989 66.7532C78.9319 67.4853 79.4972 68.4076 80.2637 68.8355Z" fill="#BA2420"/>
<path d="M81.1069 61.0672L82.4291 61.7994C83.1669 62.2082 83.828 61.999 83.9717 61.3525C83.7897 61.3335 83.5884 61.2669 83.3872 61.1528L82.065 60.4302C81.2793 60.0023 80.714 59.0515 80.7907 58.3003L80.9535 56.7124C80.9631 56.6649 80.9727 56.6173 80.9823 56.5698C80.4553 56.5032 80.0529 56.7885 79.9858 57.3495L79.8325 58.9469C79.7559 59.6885 80.3212 60.6394 81.1069 61.0672Z" fill="#BA2420"/>
<path d="M54.2693 54.535L55.5724 55.2481C56.3006 55.6475 56.9234 55.4288 57.0192 54.7822C56.8659 54.7537 56.703 54.6967 56.5305 54.6016L55.2275 53.8789C54.4609 53.4606 53.8669 52.5097 53.9052 51.7681L53.9914 50.1802C53.9914 50.1327 54.001 50.0946 54.0106 50.0566C53.4645 49.952 53.062 50.2373 53.0333 50.8268L52.9471 52.4147C52.9087 53.1658 53.5028 54.1167 54.2693 54.535Z" fill="#BA2420"/>
<path d="M68.8905 69.368L67.6162 68.6644C66.8593 68.246 66.2844 67.3332 66.3419 66.6201L66.4568 65.1083C66.4568 65.0797 66.4664 65.0512 66.476 65.0322C65.949 64.9371 65.5466 65.2034 65.4987 65.7548L65.3837 67.2667C65.3262 67.9798 65.9011 68.8926 66.6581 69.3109L67.9324 70.0146C68.6702 70.4139 69.3025 70.2047 69.3983 69.5582C69.245 69.5296 69.0726 69.4726 68.8905 69.368Z" fill="#BA2420"/>
<path d="M49.7085 58.8138L48.4246 58.1101C47.6677 57.6918 47.0736 56.7695 47.1024 56.0468L47.1599 54.497C47.1599 54.459 47.1695 54.4304 47.1695 54.4019C46.6233 54.2878 46.2113 54.5635 46.1922 55.1436L46.1347 56.6934C46.1059 57.416 46.7 58.3479 47.4569 58.7567L48.7408 59.4603C49.469 59.8597 50.0822 59.641 50.1589 58.9849C50.0152 58.9564 49.8619 58.9088 49.7085 58.8138Z" fill="#BA2420"/>
<path d="M56.1089 62.3413L54.825 61.6377C54.068 61.2194 53.4836 60.2971 53.5123 59.5744L53.5889 58.0341C53.5889 58.0056 53.5985 57.977 53.6081 57.939C53.0716 57.8344 52.6595 58.1006 52.6308 58.6711L52.5542 60.2115C52.5158 60.9341 53.1003 61.8564 53.8668 62.2748L55.1507 62.9784C55.8789 63.3777 56.5017 63.1591 56.5784 62.503C56.4251 62.484 56.2718 62.4269 56.1089 62.3413Z" fill="#BA2420"/>
<path d="M62.4997 65.8499L61.2158 65.1463C60.4589 64.7279 59.884 63.8151 59.9223 63.0925L60.0181 61.5617C60.0181 61.5331 60.0277 61.5046 60.0373 61.4761C59.5007 61.3715 59.0983 61.6472 59.06 62.2082L58.9642 63.7391C58.9163 64.4522 59.5007 65.3745 60.2577 65.7929L61.5416 66.4965C62.2698 66.8958 62.9021 66.6866 62.9884 66.0306C62.8351 66.002 62.6722 65.945 62.4997 65.8499Z" fill="#BA2420"/>
<path d="M75.291 72.8956L74.007 72.1919C73.2501 71.7736 72.6848 70.8703 72.7519 70.1572L72.886 68.6549C72.886 68.6263 72.8956 68.6073 72.9052 68.5788C72.3782 68.4932 71.9758 68.7594 71.9279 69.3014L71.7937 70.8037C71.7267 71.5074 72.292 72.4201 73.0489 72.8385L74.3328 73.5421C75.061 73.9415 75.7125 73.7323 75.8179 73.0857C75.655 73.0477 75.473 72.9906 75.291 72.8956Z" fill="#BA2420"/>
<path d="M81.6913 76.4136L80.4074 75.71C79.6505 75.2916 79.0947 74.3884 79.1714 73.6943L79.3343 72.2015C79.3343 72.1729 79.3439 72.1539 79.3534 72.1349C78.836 72.0493 78.4336 72.3156 78.3761 72.848L78.2132 74.3408C78.1366 75.0444 78.6923 75.9477 79.4492 76.3566L80.7332 77.0602C81.4709 77.4691 82.1225 77.2599 82.2374 76.6133C82.065 76.5753 81.8734 76.5087 81.6913 76.4136Z" fill="#BA2420"/>
<path d="M48.0892 42.9064L49.4114 43.629C50.1396 44.0283 50.7529 43.8192 50.8678 43.1631C50.7145 43.1346 50.5421 43.0775 50.3696 42.9824L49.0474 42.2598C48.2617 41.8319 47.658 40.8621 47.6868 40.0824L47.7443 38.4279C47.7443 38.3709 47.7634 38.3138 47.773 38.2568C47.2173 38.1522 46.8053 38.4565 46.7861 39.0745L46.7286 40.729C46.6999 41.5086 47.3035 42.4785 48.0892 42.9064Z" fill="#BA2420"/>
<path d="M41.4876 39.2742L42.8098 39.9968C43.538 40.3962 44.1416 40.1775 44.247 39.5309C44.0937 39.5024 43.9404 39.4453 43.7679 39.3598L42.4457 38.6371C41.6696 38.2093 41.0468 37.2299 41.066 36.4502L41.1043 34.7863C41.1043 34.7197 41.1139 34.6722 41.1235 34.6151C40.5677 34.5105 40.1557 34.8148 40.1366 35.4328L40.0983 37.0968C40.0887 37.867 40.7115 38.8463 41.4876 39.2742Z" fill="#BA2420"/>
<path d="M47.773 50.9599L49.0761 51.673C49.8043 52.0724 50.4175 51.8537 50.5133 51.2071C50.36 51.1786 50.2067 51.1215 50.0438 51.036L48.7407 50.3228C47.9742 49.895 47.3706 48.9536 47.3993 48.2025L47.4568 46.5956C47.4568 46.548 47.4664 46.51 47.476 46.472C46.9298 46.3674 46.5178 46.6526 46.4987 47.2421L46.4412 48.849C46.4029 49.5907 47.0065 50.5415 47.773 50.9599Z" fill="#BA2420"/>
<path d="M43.3081 55.2957L42.0242 54.5921C41.2672 54.1737 40.6636 53.2419 40.6828 52.5098L40.7211 50.9504C40.7211 50.9124 40.7307 50.8838 40.7307 50.8553C40.175 50.7317 39.7725 51.0074 39.7534 51.597L39.715 53.1563C39.6959 53.8885 40.2995 54.8203 41.0564 55.2386L42.3404 55.9423C43.059 56.3416 43.6722 56.1229 43.7393 55.4668C43.6147 55.4288 43.4614 55.3813 43.3081 55.2957Z" fill="#BA2420"/>
<path d="M41.2768 47.3848L42.5799 48.0979C43.308 48.4972 43.9117 48.2786 43.9979 47.6225C43.8542 47.594 43.7009 47.5369 43.538 47.4513L42.2349 46.7382C41.4684 46.3103 40.8552 45.3595 40.8744 44.6083L40.9127 42.9919C40.9127 42.9444 40.9223 42.9064 40.9319 42.8588C40.3761 42.7447 39.9641 43.03 39.9545 43.6385L39.9162 45.2549C39.8971 46.0061 40.5007 46.9664 41.2768 47.3848Z" fill="#BA2420"/>
<path d="M18.7508 41.1568L18.9425 42.8398C19.0287 43.6195 18.4922 44.5893 17.7256 45.0267L16.4417 45.7684C16.2884 45.8539 16.1447 45.911 16.001 45.9395C16.2022 46.529 16.8346 46.7002 17.5148 46.3103L18.7988 45.5687C19.5653 45.1313 20.1018 44.1615 20.0156 43.3818L19.824 41.6988C19.7473 41.0522 19.2778 40.748 18.6838 40.8811C18.7221 40.9667 18.7413 41.0522 18.7508 41.1568Z" fill="#BA2420"/>
<path d="M25.295 37.401L25.4292 39.1125C25.4867 39.9112 24.9214 40.8906 24.1644 41.328L22.8805 42.0696C22.7464 42.1457 22.6122 42.1932 22.4877 42.2313C22.6697 42.8303 23.2829 43.0014 23.9536 42.6211L25.2375 41.8795C26.0041 41.4421 26.5694 40.4532 26.5023 39.664L26.3682 37.9525C26.3202 37.2774 25.8412 36.9637 25.2375 37.1158C25.2663 37.2014 25.2855 37.2965 25.295 37.401Z" fill="#BA2420"/>
<path d="M19.6803 49.2389L19.8623 50.7697C19.9485 51.4829 19.4216 52.3957 18.6934 52.8045L17.4669 53.5081C17.3328 53.5842 17.2082 53.6317 17.0741 53.6698C17.237 54.2688 17.8598 54.4494 18.5401 54.0596L19.7665 53.356C20.4947 52.9376 21.0217 52.0248 20.9354 51.3212L20.7534 49.7904C20.6863 49.1913 20.2168 48.9251 19.6419 49.0772C19.6515 49.1248 19.6707 49.1723 19.6803 49.2389Z" fill="#BA2420"/>
<path d="M25.8986 45.4736C25.9082 45.5307 25.9274 45.5877 25.937 45.6543L26.0615 47.2136C26.119 47.9363 25.5729 48.8586 24.8447 49.2769L23.6087 49.9805C23.4937 50.0471 23.3787 50.0946 23.2733 50.1232C23.417 50.7222 24.0111 50.9124 24.6914 50.5225L25.9274 49.8189C26.6556 49.4005 27.2017 48.4782 27.1442 47.7556L27.0197 46.1962C26.9622 45.5782 26.4831 45.2929 25.8986 45.4736Z" fill="#BA2420"/>
<path d="M32.1553 41.87C32.1649 41.9365 32.1841 41.9936 32.1841 42.0696L32.2416 43.667C32.2799 44.4087 31.705 45.3405 30.9768 45.7589L29.7504 46.4625C29.645 46.5195 29.5492 46.5671 29.4534 46.5956C29.5779 47.2041 30.1528 47.3943 30.8331 47.0044L32.0595 46.3008C32.7877 45.8825 33.353 44.9506 33.3243 44.209L33.2668 42.6116C33.238 41.965 32.759 41.6703 32.1553 41.87Z" fill="#BA2420"/>
<path d="M31.8392 33.6548L31.9158 35.4043C31.9445 36.2125 31.3601 37.2204 30.6031 37.6578L29.3192 38.3994C29.1947 38.466 29.0797 38.5135 28.9647 38.5516C29.1276 39.1506 29.7217 39.3312 30.3924 38.9509L31.6763 38.2093C32.4332 37.7719 33.0273 36.764 32.9889 35.9558L32.9123 34.2063C32.8835 33.5026 32.4045 33.1699 31.7912 33.3505C31.8104 33.4456 31.8296 33.5407 31.8392 33.6548Z" fill="#BA2420"/>
<path d="M21.6061 57.1783C21.539 56.6173 21.0791 56.3796 20.5138 56.5603C20.5234 56.5888 20.533 56.6078 20.533 56.6364L20.6959 58.0436C20.7725 58.6902 20.2647 59.5459 19.5653 59.9452L18.3867 60.6203C18.2718 60.6869 18.1568 60.7344 18.0514 60.763C18.1664 61.3715 18.7796 61.5522 19.4694 61.1623L20.648 60.4872C21.3474 60.0879 21.8456 59.2321 21.7786 58.5856L21.6061 57.1783Z" fill="#BA2420"/>
<path d="M13.4235 52.8235L13.6535 54.3258C13.7589 55.0199 13.2607 55.9232 12.5325 56.3416L11.306 57.0452C11.1623 57.1308 11.0186 57.1783 10.8749 57.2164C11.0569 57.8059 11.6989 57.9865 12.3792 57.5872L13.6056 56.8836C14.3338 56.4652 14.8416 55.5619 14.7266 54.8678L14.4967 53.3655C14.4104 52.795 13.9409 52.5288 13.3756 52.6714C13.4044 52.7189 13.414 52.7665 13.4235 52.8235Z" fill="#BA2420"/>
<path d="M26.5022 53.1088C26.5118 53.1373 26.5214 53.1658 26.5214 53.1943L26.6268 54.6301C26.6747 55.2957 26.1573 56.1609 25.4578 56.5508L24.2793 57.2259C24.1739 57.2829 24.0781 57.321 23.9823 57.359C24.0781 57.9675 24.6722 58.1577 25.3524 57.7678L26.531 57.0928C27.2304 56.6934 27.7478 55.8281 27.6999 55.1721L27.5945 53.7363C27.5466 53.1658 27.0771 52.9091 26.5022 53.1088Z" fill="#BA2420"/>
<path d="M33.5734 50.3133C33.5542 49.7048 33.0847 49.4386 32.4811 49.6668C32.4811 49.7048 32.4907 49.7333 32.5003 49.7714L32.5577 51.2356C32.5865 51.9107 32.0404 52.7855 31.3505 53.1848L30.172 53.8599C30.0857 53.9075 29.9995 53.9455 29.9229 53.9835C29.9995 54.6016 30.5744 54.8013 31.2547 54.4114L32.4332 53.7363C33.1326 53.337 33.6692 52.4622 33.6405 51.7871L33.5734 50.3133Z" fill="#BA2420"/>
<path d="M12.2067 44.9031L12.4558 46.548C12.5708 47.3087 12.0534 48.269 11.2965 48.7064L10.0126 49.4481C9.8497 49.5432 9.68681 49.6002 9.52393 49.6287C9.7443 50.2182 10.3958 50.3799 11.0857 49.99L12.3696 49.2484C13.1361 48.811 13.6535 47.8507 13.529 47.09L13.2799 45.4451C13.184 44.827 12.7145 44.5323 12.1397 44.6464C12.1684 44.732 12.1971 44.808 12.2067 44.9031Z" fill="#BA2420"/>
<path d="M15.6178 60.6013C15.5315 60.0689 15.0812 59.8407 14.5255 59.9928C14.5351 60.0118 14.5351 60.0308 14.5446 60.0593L14.7554 61.4381C14.8513 62.0751 14.3626 62.9118 13.6727 63.3112L12.4942 63.9863C12.3601 64.0623 12.2355 64.1099 12.111 64.1479C12.2355 64.7565 12.8775 64.9276 13.5673 64.5378L14.7459 63.8627C15.4453 63.4633 15.9244 62.6266 15.8286 61.9895L15.6178 60.6013Z" fill="#BA2420"/>
<path d="M88.82 60.8966L60.8134 76.7089L55.3233 76.4331L2.43372 45.6928L9.17905 77.46C9.17905 77.5456 9.18863 77.6312 9.19821 77.7263C9.2078 77.8023 9.21738 77.8689 9.24612 77.9259C9.37068 78.3728 9.6677 78.7627 10.0989 79.0765L4.17754 47.8036L53.3878 79.162L55.4095 105.063C56.0131 105.405 56.7892 105.567 57.6037 105.567C58.5426 105.567 59.5295 105.338 60.3056 104.892L84.2401 91.1805L84.3934 91.095C85.3036 90.5815 85.821 89.8113 85.821 89.0126L92.5759 57.388L88.82 60.8966ZM85.8114 69.5491L85.6102 71.1655C85.524 71.9072 84.8437 72.8675 84.0868 73.2954L82.822 74.018C82.0651 74.4554 81.5094 74.2082 81.586 73.4666L81.7393 71.8692C81.816 71.1085 82.4962 70.1291 83.2819 69.6918L84.585 68.9501C85.3515 68.5127 85.8977 68.779 85.8114 69.5491ZM66.2749 95.9062C66.2653 96.4957 65.7 97.2849 65.0197 97.6842L63.8508 98.3498C63.1609 98.7491 62.5956 98.6065 62.586 98.017L62.5668 96.7714C62.5573 96.1724 63.1321 95.3642 63.822 94.9648L65.0197 94.2802C65.7191 93.8714 66.294 94.0425 66.2844 94.6416L66.2749 95.9062ZM66.3324 89.3454C66.3228 89.9825 65.7383 90.8382 65.0101 91.2471L63.7933 91.9412C63.0842 92.3596 62.4902 92.1789 62.471 91.5514L62.4519 90.1822C62.4327 89.5356 63.0268 88.6608 63.7645 88.2425L65.0101 87.5293C65.7479 87.111 66.3419 87.3011 66.3324 87.9572V89.3454ZM66.3994 82.1762C66.3994 82.8798 65.7766 83.7926 65.0293 84.23L63.7549 84.9621C62.998 85.39 62.3848 85.1808 62.3752 84.4867L62.3561 82.9939C62.3465 82.2808 62.9597 81.3394 63.7358 80.9116L65.0389 80.1604C65.8149 79.7135 66.4282 79.9512 66.4186 80.6643L66.3994 82.1762ZM72.1291 92.5402C72.1004 93.1392 71.5255 93.9475 70.8356 94.3468L69.6667 95.0124C68.9672 95.4117 68.4307 95.2501 68.4403 94.6606L68.469 93.377C68.4882 92.7779 69.0726 91.9412 69.7721 91.5418L70.9602 90.8573C71.6692 90.4484 72.2154 90.6291 72.1866 91.2471L72.1291 92.5402ZM72.4549 85.8369C72.4261 86.4929 71.8129 87.3582 71.0943 87.767L69.8775 88.4612C69.1589 88.8795 68.584 88.6894 68.6127 88.0428L68.6415 86.6451C68.6606 85.9795 69.2738 85.0952 70.002 84.6768L71.2476 83.9637C71.9854 83.5454 72.5603 83.745 72.5315 84.4201L72.4549 85.8369ZM72.8094 78.506C72.7711 79.2286 72.1387 80.1604 71.3818 80.5883L70.117 81.3204C69.3601 81.7483 68.766 81.5201 68.7852 80.8165L68.8235 79.2856C68.8427 78.5535 69.4846 77.6027 70.2512 77.1653L71.5542 76.4141C72.3208 75.9767 72.9244 76.2145 72.8861 76.9561L72.8094 78.506ZM77.993 89.1838C77.9451 89.8018 77.3414 90.6195 76.6516 91.0094L75.4826 91.675C74.7928 92.0648 74.2658 91.9032 74.3041 91.2851L74.3808 89.973C74.4191 89.3549 75.0227 88.5182 75.7222 88.1189L76.9198 87.4343C77.6193 87.0254 78.1559 87.2061 78.0984 87.8431L77.993 89.1838ZM78.5774 82.3283C78.5199 82.9939 77.8972 83.8686 77.169 84.287L75.9521 84.9811C75.2335 85.3995 74.6874 85.1998 74.7257 84.5342L74.8119 83.0985C74.8598 82.4234 75.4922 81.5296 76.23 81.1112L77.4756 80.3886C78.2038 79.9702 78.7691 80.1889 78.702 80.8735L78.5774 82.3283ZM79.2098 74.8357C79.1523 75.5584 78.4912 76.5092 77.7439 76.9371L76.4599 77.6787C75.7126 78.1066 75.1377 77.8784 75.1856 77.1463L75.2814 75.5869C75.3293 74.8358 75.9809 73.8754 76.757 73.438L78.06 72.6869C78.8266 72.2495 79.411 72.5062 79.3439 73.2574L79.2098 74.8357ZM84.0197 84.4677L83.8568 85.8178C83.7802 86.4454 83.1574 87.2821 82.4771 87.672L81.3081 88.3376C80.6183 88.7274 80.1105 88.5562 80.168 87.9287L80.3021 86.588C80.3692 85.951 80.992 85.1047 81.6914 84.7054L82.8795 84.0208C83.5885 83.6309 84.0963 83.8211 84.0197 84.4677ZM83.2532 80.7975L82.0363 81.4916C81.3177 81.9099 80.7812 81.6912 80.8482 81.0162L80.992 79.5519C81.059 78.8578 81.7106 77.9545 82.4483 77.5361L83.6939 76.823C84.4221 76.4046 84.9587 76.6233 84.8724 77.3364L84.7 78.8197C84.6137 79.5043 83.9622 80.3886 83.2532 80.7975Z" fill="#EF534F"/>
<path d="M53.3782 79.1615L4.17749 47.8031L10.0988 79.0665C9.66766 78.7527 9.37063 78.3628 9.24607 77.9159C9.38021 78.4389 9.76347 78.9143 10.3192 79.2281L55.3999 105.062L53.3782 79.1615ZM8.53705 60.8485L8.29751 59.3557C8.18253 58.6521 8.72867 58.4334 9.52393 58.8708L10.8558 59.6029C11.6414 60.0308 12.36 60.9531 12.475 61.6567L12.705 63.14C12.8104 63.8341 12.2642 64.0433 11.4785 63.6155L10.1563 62.8928C9.37063 62.4554 8.64244 61.5426 8.53705 60.8485ZM9.71556 68.1414L9.48561 66.6961C9.38021 66.0115 9.90719 65.8024 10.6929 66.2302L11.9959 66.9529C12.772 67.3807 13.4907 68.2745 13.596 68.9591L13.8164 70.3949C13.9218 71.0605 13.3853 71.2601 12.6092 70.8418L11.3157 70.1286C10.5396 69.6913 9.83054 68.807 9.71556 68.1414ZM13.711 77.8304L12.4271 77.1268C11.6702 76.7084 10.9707 75.8431 10.8653 75.1966L10.6354 73.8084C10.53 73.1428 11.057 72.9526 11.8235 73.3615L13.117 74.0746C13.8835 74.493 14.5829 75.3677 14.6883 76.0333L14.8991 77.412C14.9949 78.0586 14.468 78.2487 13.711 77.8304ZM15.1578 64.4902L14.9374 63.0164C14.8321 62.3223 15.3878 62.1036 16.1735 62.541L17.5053 63.2732C18.3005 63.701 19.0096 64.6138 19.1054 65.3174L19.3162 66.7817C19.412 67.4663 18.8563 67.6755 18.0706 67.2476L16.7483 66.525C15.9722 66.0781 15.2632 65.1843 15.1578 64.4902ZM16.2405 71.726L16.0297 70.2998C15.9243 69.6247 16.4801 69.4155 17.2466 69.8434L18.5688 70.566C19.3449 70.9844 20.0444 71.8782 20.1402 72.5533L20.3414 73.97C20.4276 74.6356 19.8911 74.8258 19.115 74.4074L17.8119 73.6943C17.0358 73.2664 16.3363 72.3916 16.2405 71.726ZM20.1018 81.3484L18.8275 80.6543C18.0706 80.236 17.3711 79.3707 17.2849 78.7242L17.0741 77.3359C16.9783 76.6799 17.5244 76.4897 18.2814 76.9176L19.5749 77.6212C20.3414 78.0396 21.0312 78.9143 21.1175 79.5609L21.3187 80.9396C21.4049 81.5862 20.8684 81.7763 20.1018 81.3484ZM21.7786 68.1319L21.5774 66.6676C21.4912 65.9735 22.0469 65.7548 22.8326 66.1922L24.1644 66.9243C24.9596 67.3617 25.6687 68.265 25.7549 68.9591L25.9369 70.4139C26.0232 71.0985 25.4579 71.2887 24.6818 70.8608L23.3595 70.1382C22.5834 69.7198 21.8648 68.8165 21.7786 68.1319ZM22.7463 75.3012L22.5547 73.8939C22.4685 73.2188 23.0146 73.0192 23.8003 73.447L25.1034 74.1602C25.8795 74.588 26.5789 75.4818 26.6651 76.1474L26.8376 77.5546C26.9238 78.2202 26.3681 78.4009 25.6016 77.9825L24.3081 77.2694C23.5416 76.8415 22.8421 75.9667 22.7463 75.3012ZM26.5023 84.876L25.2183 84.1724C24.4614 83.7541 23.7715 82.8888 23.6853 82.2517L23.5033 80.8825C23.4074 80.236 23.9632 80.0458 24.7201 80.4642L26.0136 81.1678C26.7801 81.5862 27.4604 82.4514 27.5466 83.098L27.7191 84.4672C27.8053 85.1042 27.2592 85.2944 26.5023 84.876ZM28.2173 70.3283C28.1407 69.6342 28.706 69.4345 29.5012 69.8624L30.8331 70.5946C31.6283 71.0319 32.3182 71.9352 32.4044 72.6198L32.5673 74.0556C32.644 74.7307 32.0691 74.9303 31.2834 74.5025L29.9612 73.7798C29.1851 73.352 28.4856 72.4582 28.3994 71.7736L28.2173 70.3283ZM29.0892 77.4881C29.0126 76.8225 29.5779 76.6323 30.3444 77.0507L31.6571 77.7733C32.4427 78.2012 33.1326 79.0855 33.1997 79.7511L33.3626 81.1583C33.4296 81.8049 32.8643 81.995 32.0978 81.5767L30.8043 80.854C30.0378 80.4357 29.3479 79.5514 29.2617 78.8953L29.0892 77.4881ZM32.9027 88.3941L31.6187 87.6905C30.8618 87.2721 30.1815 86.4164 30.1145 85.7793L29.942 84.4196C29.8653 83.7731 30.4211 83.5924 31.178 84.0108L32.4715 84.7239C33.2284 85.1423 33.9087 86.0075 33.9758 86.6446L34.1291 88.0043C34.2057 88.6223 33.6596 88.8125 32.9027 88.3941ZM34.8573 73.9795C34.7902 73.2949 35.3747 73.0952 36.1508 73.5326L37.4922 74.2648C38.2778 74.6926 38.9677 75.5959 39.0348 76.2805L39.1785 77.7068C39.2456 78.3819 38.6611 78.572 37.885 78.1442L36.5628 77.4215C35.7771 76.9936 35.0872 76.0999 35.0202 75.4248L34.8573 73.9795ZM35.6334 81.0822C35.5663 80.4166 36.1316 80.236 36.9077 80.6543L38.2299 81.377C38.9965 81.7953 39.6863 82.6891 39.7438 83.3357L39.8875 84.7239C39.9546 85.361 39.3797 85.5511 38.6132 85.1328L37.3101 84.4101C36.5436 83.9918 35.8633 83.117 35.7963 82.4704L35.6334 81.0822ZM39.3031 91.9122L38.0191 91.2086C37.2622 90.7902 36.5915 89.944 36.5149 89.3069L36.3711 87.9567C36.3041 87.3197 36.8694 87.139 37.6263 87.5574L38.9198 88.2705C39.6767 88.6889 40.3474 89.5541 40.4145 90.1817L40.5486 91.5223C40.6061 92.1499 40.0504 92.321 39.3031 91.9122ZM41.5068 77.6307C41.4493 76.9556 42.0338 76.7559 42.829 77.1933L44.1609 77.9159C44.9465 78.3533 45.6364 79.2566 45.6939 79.9222L45.8089 81.3484C45.8663 82.014 45.2723 82.1947 44.4962 81.7668L43.174 81.0442C42.3979 80.6163 41.708 79.732 41.6505 79.0569L41.5068 77.6307ZM42.1679 84.6764C42.1008 84.0108 42.6853 83.8301 43.4614 84.258L44.7741 84.9806C45.5597 85.4085 46.2209 86.2833 46.2783 86.9393L46.3933 88.3085C46.4412 88.9456 45.8663 89.1263 45.0998 88.6984L43.8063 87.9853C43.0398 87.5669 42.3595 86.6921 42.3021 86.0551L42.1679 84.6764ZM45.6939 95.4303L44.41 94.7266C43.653 94.3083 42.9919 93.462 42.9344 92.8345L42.8099 91.4938C42.7524 90.8568 43.3177 90.6856 44.0842 91.104L45.3777 91.8076C46.1442 92.226 46.8053 93.0817 46.8628 93.7093L46.9682 95.0404C47.0161 95.6775 46.4508 95.8391 45.6939 95.4303ZM48.1563 81.2819C48.0988 80.6163 48.7025 80.4166 49.4785 80.854L50.8104 81.5862C51.6056 82.014 52.2763 82.9078 52.3242 83.5734L52.4201 84.9806C52.468 85.6462 51.8739 85.8269 51.0882 85.3895L49.766 84.6669C48.9803 84.2295 48.3096 83.3547 48.2617 82.6891L48.1563 81.2819ZM48.712 88.28C48.6545 87.6239 49.239 87.4433 50.0151 87.8616L51.3374 88.5843C52.1039 89.0121 52.7746 89.8869 52.8129 90.524L52.9183 91.8932C52.9662 92.5302 52.3721 92.7014 51.596 92.283L50.3026 91.5699C49.536 91.142 48.8653 90.2863 48.8174 89.6397L48.712 88.28ZM52.0847 98.9483L50.8008 98.2447C50.0439 97.8264 49.3923 96.9896 49.3444 96.3716L49.239 95.0404C49.1911 94.4129 49.766 94.2417 50.5325 94.6601L51.826 95.3732C52.5829 95.7916 53.2441 96.6378 53.292 97.2654L53.3878 98.587C53.4165 99.2051 52.8512 99.3667 52.0847 98.9483Z" fill="#E83A35"/>
<path d="M88.82 60.8961L60.8134 76.7084L55.3232 76.4327L9.75389 49.9425C9.71557 50.3894 9.67724 50.8268 9.61975 51.2737L53.3878 79.171L55.4095 105.072C56.0131 105.414 56.7892 105.576 57.6036 105.576C58.5426 105.576 59.5295 105.347 60.3056 104.901L60.8709 77.8874L89.5577 63.5204L84.2496 91.1895L84.4029 91.104C85.3131 90.5905 85.8305 89.8203 85.8305 89.0216L92.5855 57.397L88.82 60.8961Z" fill="#E8433F"/>
<path d="M8.93952 50.8363C8.98742 50.3989 9.02575 49.971 9.05449 49.5336L2.43372 45.6828L9.17905 77.45C9.17905 77.5356 9.18863 77.6212 9.19822 77.7163C9.2078 77.7923 9.21738 77.8589 9.24612 77.916C9.37068 78.3628 9.66771 78.7527 10.0989 79.0665L4.17754 47.8031L8.93952 50.8363Z" fill="#BA2420"/>
<path d="M85.0066 90.4099L60.641 104.368C59.8457 104.824 58.8589 105.053 57.9007 105.053C57.0767 105.053 56.291 104.882 55.6874 104.539L10.0797 78.4104C9.6869 78.1822 9.38987 77.8874 9.19824 77.5546C9.23657 78.2297 9.63899 78.8288 10.3289 79.2281L55.4095 105.062C56.0036 105.404 56.7893 105.576 57.6037 105.576C58.5427 105.576 59.5296 105.347 60.3152 104.901L84.403 91.0945C84.9012 90.8092 85.2845 90.4479 85.524 90.0486C85.3611 90.1817 85.1982 90.3053 85.0066 90.4099Z" fill="#BA2420"/>
<path d="M88.82 60.8961L60.8134 76.7084L55.3233 76.4327L2.43372 45.6828L3.90926 52.6334C4.16796 52.833 4.44582 53.0327 4.75242 53.2039L51.1841 79.8081C52.8225 80.7494 54.9592 81.2058 57.1917 81.2058C59.817 81.2058 62.5764 80.5688 64.7706 79.3042L89.3949 65.1938C90.0943 64.7945 90.698 64.3381 91.2058 63.8532L92.5855 57.397L88.82 60.8961Z" fill="#E83A35"/>
<path d="M14.8512 77.1363C14.8129 77.1173 14.7841 77.1078 14.7458 77.0887L13.4619 76.3851C12.705 75.9668 12.0055 75.1015 11.9001 74.4549L11.7181 73.3234C11.0091 72.9811 10.53 73.1808 10.6354 73.8084L10.8653 75.2061C10.9707 75.8527 11.6702 76.7274 12.4271 77.1363L13.711 77.8399C14.468 78.2583 14.9949 78.0681 14.8991 77.4215L14.8512 77.1363Z" fill="#BA2420"/>
<path d="M19.1054 74.4074C19.8719 74.8353 20.4181 74.6356 20.3318 73.97L20.2935 73.7323C20.2456 73.7133 20.1977 73.6943 20.1402 73.6657L18.8371 72.9526C18.0706 72.5247 17.3616 71.65 17.2658 70.9749L17.0837 69.7673C16.3939 69.444 15.9148 69.6627 16.0106 70.2903L16.2214 71.7165C16.3268 72.3821 17.0262 73.2664 17.7928 73.6943L19.1054 74.4074Z" fill="#BA2420"/>
<path d="M12.6092 70.8323C13.3757 71.2506 13.9219 71.051 13.8165 70.3854L13.7781 70.1477C13.7302 70.1286 13.6919 70.1096 13.644 70.0906L12.3409 69.3775C11.5744 68.9496 10.8558 68.0653 10.7504 67.3998L10.5492 66.1827C9.84016 65.8499 9.37067 66.0591 9.47606 66.7057L9.7156 68.1414C9.821 68.807 10.53 69.7008 11.3061 70.1191L12.6092 70.8323Z" fill="#BA2420"/>
<path d="M21.2708 80.6639C21.2325 80.6448 21.1846 80.6258 21.1463 80.6068L19.8719 79.9032C19.115 79.4848 18.4251 78.6196 18.3293 77.973L18.1569 76.851C17.4574 76.5182 16.9879 76.7179 17.0742 77.3359L17.285 78.7147C17.3808 79.3612 18.0706 80.2265 18.8276 80.6448L20.1019 81.3485C20.8588 81.7668 21.3954 81.5767 21.3092 80.9396L21.2708 80.6639Z" fill="#BA2420"/>
<path d="M24.6818 70.8703C25.4579 71.2982 26.0233 71.0985 25.937 70.4139L25.9083 70.2142C25.8412 70.1857 25.7837 70.1572 25.7166 70.1287L24.3944 69.3965C23.6183 68.9686 22.9093 68.0654 22.8135 67.3808L22.641 66.1066C21.9607 65.8119 21.4912 66.0306 21.5775 66.6676L21.7787 68.1319C21.8745 68.8165 22.5835 69.7198 23.3596 70.1477L24.6818 70.8703Z" fill="#BA2420"/>
<path d="M28.3994 71.7736C28.4761 72.4487 29.1851 73.352 29.9612 73.7798L31.2834 74.5025C32.0691 74.9303 32.6344 74.7402 32.5673 74.0651L32.5482 73.8559C32.4811 73.8274 32.4045 73.7988 32.3278 73.7513L31.0056 73.0287C30.2295 72.6008 29.5204 71.707 29.4438 71.0224L29.2905 69.7578C28.6198 69.4726 28.1503 69.6913 28.2269 70.3188L28.3994 71.7736Z" fill="#BA2420"/>
<path d="M25.6112 77.9825C26.3777 78.4009 26.9335 78.2107 26.8472 77.5546L26.8185 77.3169C26.761 77.2884 26.7131 77.2694 26.6556 77.2409L25.3525 76.5277C24.586 76.1094 23.8866 75.2251 23.7908 74.5595L23.6279 73.371C22.938 73.0572 22.4685 73.2759 22.5548 73.8939L22.7464 75.3107C22.8422 75.9762 23.5321 76.851 24.3082 77.2789L25.6112 77.9825Z" fill="#BA2420"/>
<path d="M11.469 63.6059C12.2547 64.0338 12.8008 63.8246 12.6954 63.1305L12.6667 62.9309C12.6188 62.9118 12.5709 62.8928 12.5134 62.8643L11.1911 62.1417C10.415 61.7138 9.68685 60.801 9.57187 60.1069L9.36108 58.8042C8.65205 58.481 8.18256 58.7092 8.28795 59.3652L8.53707 60.8485C8.65205 61.5426 9.38024 62.4554 10.1563 62.8833L11.469 63.6059Z" fill="#BA2420"/>
<path d="M36.5724 77.412L37.8946 78.1346C38.6803 78.5625 39.2552 78.3724 39.1881 77.6973L39.169 77.4976C39.0923 77.4691 39.0157 77.431 38.939 77.3835L37.6168 76.6609C36.8311 76.233 36.1412 75.3392 36.0646 74.6641L35.9304 73.409C35.2693 73.1333 34.8094 73.3615 34.8669 73.97L35.0202 75.4058C35.0969 76.0904 35.7867 76.9841 36.5724 77.412Z" fill="#BA2420"/>
<path d="M15.1578 64.4902C15.2632 65.1843 15.9722 66.0876 16.7579 66.5155L18.0802 67.2381C18.8658 67.666 19.412 67.4663 19.3257 66.7722L19.297 66.5725C19.2395 66.544 19.182 66.525 19.1245 66.4965L17.8023 65.7738C17.0166 65.346 16.3076 64.4427 16.2022 63.7486L16.0106 62.4554C15.3207 62.1417 14.8512 62.3699 14.9374 63.0164L15.1578 64.4902Z" fill="#BA2420"/>
<path d="M46.7287 94.6791L45.4448 93.9755C44.6879 93.5571 44.0268 92.7109 43.9693 92.0833L43.8735 91.0089C43.2219 90.7332 42.7524 90.9233 42.8099 91.4938L42.9345 92.825C42.992 93.4525 43.6531 94.2988 44.41 94.7171L45.6939 95.4207C46.4509 95.8391 47.0162 95.668 46.9683 95.0499L46.9491 94.7742C46.8725 94.7552 46.8054 94.7266 46.7287 94.6791Z" fill="#BA2420"/>
<path d="M53.1291 98.1972L51.8452 97.4936C51.0883 97.0752 50.4368 96.2385 50.3889 95.6109L50.3026 94.546C49.6607 94.2798 49.1912 94.4699 49.2391 95.0309L49.3445 96.3526C49.3924 96.9706 50.0439 97.8168 50.8009 98.2352L52.0848 98.9388C52.8417 99.3572 53.4166 99.186 53.3783 98.5775L53.3591 98.3018C53.2824 98.2827 53.2058 98.2447 53.1291 98.1972Z" fill="#BA2420"/>
<path d="M43.8063 87.9948L45.1094 88.7079C45.8759 89.1263 46.4604 88.9551 46.4029 88.3085L46.3837 88.0708C46.3071 88.0423 46.2304 88.0043 46.1538 87.9662L44.8507 87.2531C44.0842 86.8252 43.4039 85.96 43.3464 85.3134L43.241 84.1534C42.5895 83.8872 42.12 84.0868 42.1775 84.6764L42.3021 86.0551C42.3595 86.7016 43.0302 87.5669 43.8063 87.9948Z" fill="#BA2420"/>
<path d="M50.293 91.5699L51.5961 92.283C52.3626 92.7109 52.9567 92.5302 52.9088 91.8932L52.8896 91.6555C52.8034 91.6269 52.7171 91.5794 52.6309 91.5318L51.3278 90.8187C50.5613 90.3908 49.8906 89.5351 49.8427 88.898L49.7565 87.7475C49.1145 87.4908 48.6546 87.6905 48.7025 88.2705L48.8079 89.6397C48.8654 90.2863 49.5265 91.142 50.293 91.5699Z" fill="#BA2420"/>
<path d="M43.1645 81.0442L44.4963 81.7668C45.2724 82.1947 45.8664 82.014 45.8089 81.3485L45.7898 81.1393C45.7035 81.1107 45.6269 81.0727 45.5311 81.0157L44.2088 80.2835C43.4327 79.8557 42.7429 78.9714 42.6854 78.2963L42.5704 77.0602C41.9189 76.794 41.459 77.0222 41.5164 77.6212L41.6506 79.0474C41.7081 79.732 42.3884 80.6163 43.1645 81.0442Z" fill="#BA2420"/>
<path d="M49.7756 84.6764L51.0979 85.399C51.8836 85.8269 52.4776 85.6462 52.4297 84.9901L52.4201 84.7809C52.3339 84.7429 52.2381 84.7049 52.1423 84.6478L50.82 83.9252C50.0343 83.4973 49.3636 82.6131 49.3062 81.9475L49.2103 80.7209C48.5684 80.4737 48.1085 80.6924 48.1564 81.2819L48.2714 82.6986C48.3097 83.3642 48.99 84.2485 49.7756 84.6764Z" fill="#BA2420"/>
<path d="M37.3006 84.4196L38.6037 85.1328C39.3702 85.5511 39.9451 85.3705 39.878 84.7239L39.8589 84.4862C39.7918 84.4577 39.7247 84.4291 39.6481 84.3911L38.345 83.6685C37.5785 83.2406 36.8982 82.3753 36.8216 81.7193L36.697 80.5497C36.0359 80.2645 35.5664 80.4737 35.6334 81.0727L35.7868 82.4704C35.8538 83.1265 36.5341 83.9918 37.3006 84.4196Z" fill="#BA2420"/>
<path d="M33.9374 87.643L32.6535 86.9394C31.8966 86.521 31.2259 85.6652 31.1396 85.0282L31.0055 83.9252C30.3348 83.6209 29.8557 83.8111 29.9324 84.4101L30.0953 85.7698C30.1719 86.4069 30.8522 87.2626 31.6091 87.681L32.893 88.3846C33.65 88.803 34.2057 88.6223 34.1386 87.9948L34.1099 87.719C34.0524 87.7 33.9949 87.681 33.9374 87.643Z" fill="#BA2420"/>
<path d="M40.3379 91.161L39.054 90.4574C38.2971 90.039 37.6264 89.1928 37.5593 88.5557L37.4443 87.4718C36.7832 87.177 36.3137 87.3767 36.3712 87.9567L36.5149 89.3069C36.582 89.9345 37.2527 90.7902 38.0096 91.2086L39.2936 91.9122C40.0505 92.3305 40.6062 92.1499 40.5487 91.5318L40.52 91.2561C40.4625 91.2276 40.405 91.1991 40.3379 91.161Z" fill="#BA2420"/>
<path d="M30.8043 80.8445L32.1074 81.5576C32.8739 81.9855 33.4392 81.7953 33.3722 81.1393L33.3434 80.9016C33.2763 80.873 33.2189 80.8445 33.1518 80.8065L31.8487 80.0933C31.0822 79.6655 30.3923 78.7907 30.3157 78.1442L30.172 76.9651C29.5013 76.6704 29.0318 76.8795 29.1084 77.4881L29.2809 78.8953C29.3479 79.5419 30.0378 80.4166 30.8043 80.8445Z" fill="#BA2420"/>
<path d="M27.6904 84.2009C27.6425 84.1819 27.5946 84.1629 27.5467 84.1344L26.2628 83.4308C25.5058 83.0124 24.8256 82.1567 24.7297 81.5101L24.5764 80.3976C23.8962 80.0838 23.4171 80.274 23.5033 80.8825L23.6854 82.2517C23.7716 82.8983 24.4615 83.7541 25.2184 84.1724L26.5023 84.876C27.2592 85.2944 27.8054 85.1137 27.7287 84.4767L27.6904 84.2009Z" fill="#BA2420"/>
<path d="M71.583 83.8111C71.583 83.8301 71.583 83.8396 71.583 83.8586L71.5159 85.2754C71.4872 85.9315 70.874 86.7967 70.1553 87.2056L68.9385 87.8997C68.8235 87.9662 68.7085 88.0138 68.6031 88.0518C68.5936 88.6889 69.1589 88.8695 69.8775 88.4607L71.0943 87.7666C71.8129 87.3577 72.4261 86.4924 72.4549 85.8364L72.522 84.4196C72.5507 83.8491 72.1483 83.6209 71.583 83.8111Z" fill="#BA2420"/>
<path d="M71.928 76.252C71.928 76.2995 71.9376 76.3376 71.9376 76.3946L71.8705 77.9445C71.8322 78.6671 71.1998 79.5894 70.4429 80.0268L69.1685 80.7589C69.0344 80.835 68.9098 80.8826 68.7853 80.9206C68.8332 81.5386 69.3985 81.7288 70.1075 81.3199L71.3818 80.5878C72.1388 80.1599 72.7712 79.2281 72.8095 78.5055L72.8766 76.9556C72.9053 76.3471 72.5029 76.0808 71.928 76.252Z" fill="#BA2420"/>
<path d="M71.2572 90.7236L71.1997 91.9787C71.171 92.5873 70.5865 93.386 69.8966 93.7758L68.7277 94.4414C68.6319 94.4984 68.5361 94.5365 68.4498 94.5745V94.6411C68.4307 95.2401 68.9768 95.3922 69.6667 95.0024L70.8356 94.3368C71.5255 93.947 72.1099 93.1388 72.1387 92.5397L72.1962 91.2466C72.2153 90.7141 71.8129 90.5145 71.2572 90.7236Z" fill="#BA2420"/>
<path d="M65.4029 87.3672C65.4029 87.3767 65.4029 87.3862 65.4029 87.3957L65.3934 88.7839C65.3934 89.421 64.7993 90.2768 64.0807 90.6856L62.8639 91.3797C62.7297 91.4558 62.6051 91.5033 62.4806 91.5414C62.4902 92.1689 63.0842 92.3496 63.8028 91.9407L65.0197 91.2466C65.7383 90.8377 66.3323 89.982 66.3323 89.3449L66.3419 87.9567C66.3515 87.4148 65.9491 87.1961 65.4029 87.3672Z" fill="#BA2420"/>
<path d="M65.4605 79.9793C65.4605 80.0173 65.4701 80.0553 65.4701 80.1029L65.4605 81.6147C65.4509 82.3183 64.8377 83.2311 64.0807 83.6685L62.8064 84.4006C62.6531 84.4862 62.5094 84.5432 62.3752 84.5813C62.4423 85.1993 63.0268 85.38 63.7454 84.9616L65.0197 84.2295C65.7767 83.8016 66.3899 82.8793 66.3995 82.1757L66.409 80.6639C66.4186 80.0839 66.0162 79.8271 65.4605 79.9793Z" fill="#BA2420"/>
<path d="M65.3455 94.1276L65.3359 95.3447C65.3264 95.9342 64.7706 96.7329 64.0808 97.1227L62.9118 97.7883C62.7969 97.8549 62.6915 97.9024 62.5861 97.9309V98.007C62.5956 98.587 63.1609 98.7391 63.8508 98.3398L65.0197 97.6742C65.7096 97.2844 66.2749 96.4857 66.2749 95.8962L66.2845 94.6316C66.2845 94.1276 65.8821 93.9375 65.3455 94.1276Z" fill="#BA2420"/>
<path d="M83.0807 83.9347L82.9274 85.2564C82.8508 85.8839 82.228 86.7111 81.5477 87.1105L80.3787 87.7761C80.3117 87.8141 80.2446 87.8426 80.1871 87.8711L80.1775 87.9282C80.12 88.5557 80.6279 88.7269 81.3177 88.3371L82.4867 87.6715C83.1765 87.2816 83.7897 86.4544 83.8664 85.8174L84.0293 84.4672C84.0963 83.8872 83.6843 83.678 83.0807 83.9347Z" fill="#BA2420"/>
<path d="M83.9431 76.7084C83.9431 76.7274 83.9431 76.7559 83.9431 76.775L83.7707 78.2488C83.6844 78.9334 83.0329 79.8176 82.3143 80.236L81.0974 80.9301C81.0112 80.9776 80.9345 81.0157 80.8483 81.0442C80.81 81.6908 81.3274 81.8904 82.0268 81.4816L83.2437 80.7875C83.9623 80.3786 84.6138 79.4848 84.7001 78.8002L84.8725 77.3264C84.9492 76.7179 84.5468 76.4707 83.9431 76.7084Z" fill="#BA2420"/>
<path d="M84.8724 68.8165C84.8724 68.8736 84.8724 68.9306 84.8724 68.9877L84.6712 70.6041C84.585 71.3552 83.9047 72.3061 83.1478 72.7339L81.8734 73.4661C81.768 73.5231 81.6722 73.5707 81.5764 73.5992C81.586 74.2267 82.1034 74.4264 82.8124 74.0271L84.0868 73.2949C84.8437 72.867 85.524 71.9067 85.6102 71.1651L85.8114 69.5486C85.8881 68.8831 85.4856 68.5883 84.8724 68.8165Z" fill="#BA2420"/>
<path d="M77.1689 87.3292L77.054 88.6223C77.006 89.2403 76.4024 90.0581 75.7126 90.4479L74.5436 91.1135C74.4574 91.161 74.3807 91.1991 74.3041 91.2276V91.2941C74.2658 91.9027 74.7927 92.0738 75.4826 91.6745L76.6515 91.0089C77.3414 90.6191 77.945 89.8013 77.9929 89.1833L78.1079 87.8521C78.1558 87.3007 77.7534 87.0915 77.1689 87.3292Z" fill="#BA2420"/>
<path d="M78.405 72.5343C78.405 72.5818 78.4146 72.6388 78.405 72.6959L78.2708 74.2838C78.2133 75.0159 77.5522 75.9572 76.8049 76.3851L75.5305 77.1173C75.4156 77.1838 75.3006 77.2314 75.1952 77.2694C75.2239 77.8969 75.7701 78.0871 76.4695 77.6782L77.7439 76.9461C78.4912 76.5182 79.1523 75.5769 79.2098 74.8448L79.344 73.2569C79.4014 72.6103 78.9894 72.3346 78.405 72.5343Z" fill="#BA2420"/>
<path d="M77.7631 80.2645C77.7631 80.2835 77.7631 80.3025 77.7631 80.3216L77.6385 81.7668C77.581 82.4324 76.9582 83.3072 76.2396 83.7255L75.0228 84.4196C74.9174 84.4767 74.8216 84.5242 74.7353 84.5528C74.7066 85.1993 75.2527 85.3895 75.9618 84.9806L77.1786 84.2865C77.8972 83.8777 78.5296 83.0029 78.5775 82.3278L78.7021 80.8825C78.75 80.2835 78.3475 80.0458 77.7631 80.2645Z" fill="#BA2420"/>
<path d="M94.1281 59.0134L92.2501 48.9917L40.6061 20.0104C40.6061 20.0104 33.5254 19.649 30.5935 21.6458C27.6616 23.6425 3.31515 36.6024 3.31515 36.6024C3.31515 36.6024 0.938954 36.6024 1.121 40.5103C1.20723 42.2883 1.43719 42.1362 1.66714 43.5054C1.35096 43.8382 1.07309 44.171 0.84314 44.5323C1.20723 44.7034 1.58091 44.8556 1.94501 45.0172C2.09831 45.7874 2.21329 46.2533 2.21329 46.2533L3.00855 45.4451C3.20976 45.5211 3.41097 45.6067 3.61218 45.6828C4.0146 45.2169 4.5799 44.751 5.29851 44.3516L30.9768 29.6423C34.2728 27.7596 39.4084 27.5124 42.2062 29.1193L90.6212 56.8551C90.6787 56.8836 90.7362 56.9216 90.7937 56.9596C91.0812 56.7219 91.3782 56.4937 91.6752 56.2655L94.1281 59.0134Z" fill="url(#paint0_linear)"/>
<path d="M95 59.2987V52.8806L90.4967 57.0832L66.0545 72.4201L52.8129 73.1428L0 41.3375V47.7556C0 49.5241 1.0348 51.093 2.92234 52.1674L51.3374 79.9032C53.0429 80.8825 55.2753 81.358 57.594 81.358C60.3343 81.358 63.2088 80.6924 65.4987 79.3802L91.177 64.6709C93.6107 63.2827 95 61.324 95 59.2987Z" fill="url(#paint1_linear)"/>
<path d="M57.594 74.9497C55.2658 74.9497 53.0429 74.4648 51.3374 73.4949L2.92234 45.7592C1.0348 44.6752 0 43.1064 0 41.3378C0 39.3125 1.39889 37.3538 3.83258 35.9656L29.5108 21.2563C33.7363 18.8316 39.9546 18.6034 43.6722 20.7333L92.0872 48.469C93.9652 49.5435 95.0096 51.1124 95.0096 52.8809C95.0096 54.9062 93.6107 56.8649 91.177 58.2531L65.4987 72.9625C63.2088 74.2841 60.3343 74.9497 57.594 74.9497ZM52.7937 70.9752C55.5915 72.5821 60.7368 72.3349 64.0232 70.4523L89.7015 55.7429C91.1866 54.8967 92.0681 53.8222 92.0681 52.8809C92.0681 51.9966 91.2824 51.3596 90.6117 50.9792L42.2062 23.2435C39.4085 21.6366 34.2632 21.8838 30.9768 23.7665L5.29854 38.4758C3.81341 39.3221 2.93192 40.3965 2.93192 41.3378C2.93192 42.2221 3.7176 42.8591 4.3883 43.2395L52.7937 70.9752Z" fill="#67565B"/>
<path d="M57.594 74.3028C55.2562 74.3028 53.0907 73.7989 51.5002 72.8861L3.0852 45.1503C1.31263 44.1329 0.335327 42.6687 0.335327 41.0142C0.335327 39.1125 1.66715 37.2584 4.00502 35.9178L29.6833 21.2084C31.8295 19.9818 34.6465 19.2687 37.4251 19.2687C39.763 19.2687 41.9284 19.7726 43.5189 20.6854L91.9339 48.4212C93.7065 49.4386 94.6838 50.9028 94.6838 52.5573C94.6838 54.459 93.352 56.3131 91.0141 57.6537L65.3358 72.3631C63.18 73.5992 60.3631 74.3028 57.594 74.3028ZM37.4443 21.5317C35.0393 21.5317 32.6152 22.1212 30.8139 23.1576L5.13563 37.8765C3.55469 38.7893 2.60613 39.9588 2.60613 41.0237C2.60613 41.8414 3.16185 42.6021 4.22539 43.2011L52.6404 70.9369C53.886 71.65 55.6394 72.0398 57.5749 72.0398C59.9798 72.0398 62.4039 71.4503 64.2052 70.4139L89.8835 55.7045C91.4644 54.7917 92.413 53.6222 92.413 52.5668C92.413 51.7491 91.8573 50.9884 90.7937 50.3894L42.3691 22.6442C41.1235 21.931 39.3701 21.5317 37.4443 21.5317Z" fill="#82767A"/>
<path d="M63.1417 31.8767L59.0408 29.5282L54.9975 6.15674L54.8538 5.32001L55.879 5.68133L58.7917 6.6797L63.1417 31.8767Z" fill="#342C2E"/>
<path d="M58.7822 6.6797L54.8538 5.32001C54.7196 4.55935 54.3076 4.0459 53.7806 3.86524L57.7186 5.22493C58.2456 5.41509 58.6576 5.92854 58.7822 6.6797Z" fill="#342C2E"/>
<path d="M55.8022 1.83997L51.8643 0.480282C52.5924 0.080933 53.3206 -0.0616917 53.9818 0.0238831L57.9197 1.38357C57.2586 1.28849 56.5304 1.43111 55.8022 1.83997Z" fill="#82767A"/>
<path d="M25.4291 18.5461L21.4911 17.1864L51.8643 0.480282L55.8022 1.83997L25.4291 18.5461Z" fill="#82767A"/>
<path d="M28.9455 64.4522L25.0075 63.102L18.3005 24.2986L22.2385 25.6583L28.9455 64.4522Z" fill="#362727"/>
<path d="M22.2385 25.6583L18.3005 24.2986C18.0514 22.8343 18.358 21.2179 19.0479 19.8582L22.9859 21.2179C22.2864 22.5776 21.9798 24.194 22.2385 25.6583Z" fill="#41363A"/>
<path d="M22.9763 21.2179L19.0383 19.8582C19.6228 18.7172 20.4755 17.7474 21.4912 17.1864L25.4292 18.5461C24.4135 19.1071 23.5608 20.0674 22.9763 21.2179Z" fill="#67565B"/>
<path d="M65.6808 33.3315L63.1513 31.8767L58.7918 6.6797C58.5618 5.36755 57.4983 4.78755 56.4156 5.37706L55.879 5.67182L54.9975 6.14723L26.0424 22.0927C25.3621 22.473 24.8351 23.2242 24.5956 24.0609C24.4519 24.5363 24.4135 25.0593 24.4902 25.5442L24.7968 27.3032L30.0953 57.977L30.7373 61.7043L31.0152 63.3112L28.9264 64.4522L28.1982 60.2495L27.5563 56.5223L22.708 28.4918L22.2194 25.6583C22.2002 25.5822 22.2002 25.5157 22.1906 25.4301C21.8361 22.7868 23.2446 19.7346 25.41 18.5366L55.7832 1.83046C58.0157 0.60389 60.2098 1.80194 60.6793 4.5023L65.6808 33.3315Z" fill="#5A4B50"/>
<path d="M32.9122 64.5473C32.9122 61.419 30.6894 57.6157 27.9395 56.0373C26.5406 55.2386 25.2854 55.1721 24.3848 55.714L22.2194 56.9501L22.9955 58.2813C22.9763 58.462 22.9667 58.6521 22.9667 58.8518C22.9667 61.98 25.1896 65.7833 27.9395 67.3617C28.1311 67.4758 28.3227 67.5614 28.5048 67.647L29.2713 68.9591L31.3313 67.7706C31.4175 67.723 31.5038 67.6755 31.5804 67.628L31.6667 67.5804V67.5709C32.4332 67.0194 32.9122 65.983 32.9122 64.5473Z" fill="#564B4A"/>
<path d="M29.2987 68.9336C31.2265 67.8152 31.2067 64.222 29.2544 60.9081C27.3021 57.5941 24.1566 55.8143 22.2288 56.9328C20.301 58.0512 20.3208 61.6444 22.2731 64.9583C24.2254 68.2722 27.3708 70.0521 29.2987 68.9336Z" fill="#4E4145"/>
<path d="M29.1341 68.8495C31.0162 67.7576 30.9961 64.2484 29.0893 61.0115C27.1824 57.7746 24.1107 56.0358 22.2286 57.1278C20.3465 58.2197 20.3665 61.7289 22.2734 64.9658C24.1803 68.2026 27.2519 69.9415 29.1341 68.8495Z" fill="#362727"/>
<path d="M27.3836 65.878C28.3109 65.34 28.3006 63.6102 27.3605 62.0145C26.4204 60.4187 24.9066 59.5612 23.9792 60.0992C23.0518 60.6373 23.0621 62.367 24.0022 63.9628C24.9423 65.5586 26.4562 66.4161 27.3836 65.878Z" fill="#E83A35"/>
<defs>
<linearGradient id="paint0_linear" x1="0.845056" y1="39.4986" x2="94.1313" y2="39.4986" gradientUnits="userSpaceOnUse">
<stop stop-color="#41363A"/>
<stop offset="0.00815902" stop-color="#43383C"/>
<stop offset="0.0121" stop-color="#4B3E43"/>
<stop offset="0.0152" stop-color="#58494E"/>
<stop offset="0.0175" stop-color="#68575C"/>
<stop offset="0.2297" stop-color="#68575C"/>
<stop offset="0.3302" stop-color="#68575C"/>
<stop offset="0.3469" stop-color="#68575C"/>
<stop offset="0.3513" stop-color="#66555A"/>
<stop offset="0.353" stop-color="#5F5054"/>
<stop offset="0.3541" stop-color="#53464A"/>
<stop offset="0.355" stop-color="#43373B"/>
<stop offset="0.3551" stop-color="#41363A"/>
<stop offset="0.3822" stop-color="#41363A"/>
<stop offset="0.3865" stop-color="#41363A"/>
<stop offset="0.4107" stop-color="#3D3336"/>
<stop offset="0.4297" stop-color="#342C2E"/>
</linearGradient>
<linearGradient id="paint1_linear" x1="9.58144e-05" y1="61.3551" x2="95.0038" y2="61.3551" gradientUnits="userSpaceOnUse">
<stop offset="0.5703" stop-color="#2B1C1C"/>
<stop offset="0.5734" stop-color="#2E1F1F"/>
<stop offset="0.5906" stop-color="#3C2E2E"/>
<stop offset="0.6113" stop-color="#453636"/>
<stop offset="0.6449" stop-color="#473939"/>
<stop offset="0.646" stop-color="#4F4242"/>
<stop offset="0.6479" stop-color="#544948"/>
<stop offset="0.6531" stop-color="#564B4A"/>
<stop offset="0.6698" stop-color="#564B4A"/>
<stop offset="0.7703" stop-color="#564B4A"/>
<stop offset="0.9825" stop-color="#564B4A"/>
<stop offset="0.9851" stop-color="#4F4342"/>
<stop offset="0.99" stop-color="#493B3B"/>
<stop offset="1" stop-color="#473939"/>
</linearGradient>
</defs>
</svg>
