<svg width="42" height="42" viewBox="0 0 42 42" fill="none" xmlns="http://www.w3.org/2000/svg">
<path d="M39.6817 7.42234e-08H2.31642C1.03693 0.000640943 -0.00032036 1.03853 7.42234e-08 2.31834V39.6836C0.000640943 40.9631 1.03853 42.0003 2.31834 42H39.6817C40.9618 42.0003 41.9997 40.9628 42 39.6826C42 39.6823 42 39.682 42 39.6817V2.31642C41.9994 1.03693 40.9615 -0.00032036 39.6817 7.42234e-08Z" fill="#4267B2"/>
<path d="M28.998 42V25.7578H34.4736L35.2939 19.4004H28.998V15.3514C28.998 13.515 29.5079 12.2637 32.1412 12.2637H35.4785V6.59293C34.8979 6.5157 32.9057 6.34299 30.5877 6.34299C25.7479 6.34299 22.4355 9.29611 22.4355 14.7217V19.4004H16.9805V25.7578H22.4355V42H28.998Z" fill="white"/>
</svg>
