<svg width="82" height="91" viewBox="0 0 82 91" fill="none" xmlns="http://www.w3.org/2000/svg">
<g clip-path="url(#clip0)">
<path d="M8.91776 83.3016L40.4786 64.9736C43.2697 63.3537 47.7861 63.3459 50.5695 64.9581L51.6584 65.5907C54.4341 67.2029 54.4188 69.8256 51.6277 71.4532L20.0668 89.7812C17.2757 91.4011 12.7594 91.4088 9.97593 89.7967L8.88709 89.1641C6.11133 87.5442 6.12667 84.9215 8.91776 83.3016Z" fill="#E3E5EF"/>
<path d="M52.6283 52.7224C64.7747 31.8211 64.8974 9.15844 52.9023 2.10384C40.9071 -4.95076 21.3366 6.27417 9.19015 27.1754C-2.95625 48.0767 -3.07889 70.7394 8.91624 77.794C20.9114 84.8486 40.4819 73.6236 52.6283 52.7224Z" fill="#494440"/>
<path d="M58.6054 5.42283L53.0616 2.20616L8.26599 77.3851L14.523 81.0492L58.6054 5.42283Z" fill="#494440"/>
<path d="M58.1656 55.943C70.312 35.0418 70.4346 12.3791 58.4395 5.32449C46.4444 -1.73011 26.8738 9.49482 14.7274 30.3961C2.58098 51.2973 2.45834 73.96 14.4535 81.0146C26.4486 88.0692 46.0192 76.8443 58.1656 55.943Z" fill="#57524E"/>
<path d="M58.1937 55.9504C70.0495 35.5493 70.1676 13.4281 58.4577 6.54117C46.7477 -0.34572 27.6439 10.6097 15.7882 31.0107C3.9325 51.4118 3.81433 73.5331 15.5243 80.4199C27.2343 87.3068 46.338 76.3514 58.1937 55.9504Z" fill="#65605D"/>
<path d="M56.7507 55.1017C67.8007 36.0872 67.9117 15.4699 56.9987 9.05174C46.0858 2.63358 28.2813 12.8449 17.2314 31.8595C6.18139 50.874 6.07034 71.4912 16.9833 77.9094C27.8963 84.3275 45.7007 74.1162 56.7507 55.1017Z" fill="#807C79"/>
<path d="M64.6093 27.4381C64.6093 45.0487 52.241 66.5086 36.982 75.3641C28.7544 80.1466 21.3626 80.2778 16.3018 76.6291C11.9848 73.505 9.36243 67.6271 9.36243 59.5276C9.36243 58.9953 9.37776 58.4554 9.40077 57.9231C9.43144 57.2597 9.46978 56.5886 9.53879 55.9175C9.96052 51.1889 11.1874 46.2752 13.043 41.4772C13.3267 40.7598 13.6181 40.0425 13.9248 39.3251C15.9798 34.5271 18.6635 29.8911 21.7767 25.7025C22.2367 25.0776 22.7122 24.4683 23.1952 23.8589C26.4157 19.8322 30.0656 16.2993 33.9532 13.5532C34.5053 13.1598 35.0651 12.7818 35.6248 12.427C36.0772 12.1338 36.522 11.8639 36.9744 11.6016C44.0671 7.48241 50.5311 6.81131 55.4155 9.0406C61.0591 11.5939 64.6093 18.0118 64.6093 27.4381Z" fill="#B2B0AF"/>
<path d="M62.3856 26.1499C62.3856 43.7528 50.025 65.2127 34.766 74.0682C27.6656 78.1951 21.1939 78.8585 16.3018 76.6214C11.9848 73.4973 9.36243 67.6194 9.36243 59.5199C9.36243 58.9876 9.37776 58.4477 9.40077 57.9154C9.43144 57.252 9.46978 56.5809 9.53879 55.9098C9.96052 51.1812 11.1874 46.2675 13.043 41.4695C13.3267 40.7521 13.6181 40.0348 13.9248 39.3174C15.9798 34.5194 18.6635 29.8834 21.7767 25.6948C22.2367 25.0699 22.7122 24.4605 23.1952 23.8512C26.4157 19.8245 30.0656 16.2916 33.9532 13.5455C34.5053 13.1521 35.0651 12.7741 35.6248 12.4193C36.0772 12.1261 36.522 11.8562 36.9744 11.5939C44.0671 7.4747 50.5311 6.8036 55.4155 9.0329C59.7555 12.1416 62.3856 18.0272 62.3856 26.1499Z" fill="#F7FBFF"/>
<path d="M36.2995 35.769L35.5251 37.2269L43.0702 11.9102L41.8357 12.0336L33.7078 39.3097C33.6695 39.3328 33.6311 39.3405 33.5928 39.3637C33.4088 39.4717 33.2401 39.6105 33.0714 39.7571L24.0463 30.7473L22.8655 32.4289L31.8829 41.4387C31.6758 41.9247 31.5531 42.4261 31.5531 42.8966C31.5531 43.3903 31.6835 43.7683 31.9135 44.0151L18.1344 69.9104L18.8628 70.2344L31.6528 46.2058L31.3308 47.2781L32.5653 47.1546L33.4701 44.1231C33.5084 44.1 33.5468 44.0922 33.5851 44.0691C33.7691 43.9611 33.9378 43.8223 34.1065 43.6757L35.5174 45.0873L36.6983 43.4057L35.2874 42.0018C35.4944 41.5158 35.6171 41.0144 35.6171 40.5439C35.6171 40.0502 35.4867 39.6722 35.2567 39.4254L37.0203 36.1084L36.2995 35.769Z" fill="#CBD1D6"/>
<path d="M33.7769 47.6406L32.5424 47.764L43.0396 12.5273L44.2742 12.4038L33.7769 47.6406Z" fill="#65605D"/>
<path d="M37.5111 36.2627L38.2395 36.5867L20.0667 70.7204L19.3383 70.3964L37.5111 36.2627Z" fill="#FF345D"/>
<path d="M37.9098 43.8917L36.729 45.5733L24.0693 32.9226L25.2502 31.241L37.9098 43.8917Z" fill="#65605D"/>
<path d="M35.6324 12.4193V14.1549C35.6324 14.6794 35.2567 15.3351 34.7966 15.6051C34.3365 15.8673 33.9608 15.6514 33.9608 15.1191V13.5455C34.5129 13.1521 35.0727 12.7741 35.6324 12.4193Z" fill="#65605D"/>
<path d="M11.7548 55.5858C11.7548 56.1181 11.3791 56.7738 10.919 57.036L9.40076 57.9154C9.43143 57.252 9.46977 56.5809 9.53878 55.9098L10.919 55.1076C11.3791 54.8453 11.7548 55.0613 11.7548 55.5858Z" fill="#65605D"/>
<path d="M34.7966 68.8073C34.3365 69.0773 33.9608 69.7253 33.9608 70.2575V72.3865C33.9608 72.9188 34.3365 73.1348 34.7966 72.8648C35.2567 72.5948 35.6324 71.9469 35.6324 71.4146V69.2856C35.6324 68.7533 35.2567 68.5373 34.7966 68.8073Z" fill="#65605D"/>
<path d="M60.5146 26.3042L58.6743 27.3764C58.2142 27.6464 57.8385 28.2943 57.8385 28.8266C57.8385 29.3588 58.2142 29.5748 58.6743 29.3048L60.5146 28.2326C60.9747 27.9626 61.3504 27.3147 61.3504 26.7824C61.3504 26.2502 60.9747 26.0342 60.5146 26.3042Z" fill="#65605D"/>
<path d="M55.8909 17.009L57.4859 15.0188C57.8846 14.5174 58.0226 13.8463 57.7926 13.5223C57.5625 13.1984 57.0488 13.3372 56.6501 13.8309L55.0552 15.8211C54.6564 16.3225 54.5184 16.9936 54.7484 17.3176C54.9785 17.6415 55.4922 17.5027 55.8909 17.009Z" fill="#65605D"/>
<path d="M46.3138 12.481C46.7125 12.5118 47.2263 12.0567 47.4563 11.4628L48.3765 9.0869C48.6065 8.49293 48.4685 7.98382 48.0698 7.94525C47.671 7.9144 47.1573 8.36951 46.9272 8.96348L46.0071 11.3393C45.7771 11.9333 45.9151 12.4424 46.3138 12.481Z" fill="#65605D"/>
<path d="M23.2719 25.8645C22.8731 26.3659 22.3594 26.5047 22.1294 26.1807L21.7843 25.6948C22.2444 25.07 22.7198 24.4606 23.2029 23.8512L23.5709 24.3757C23.8086 24.6997 23.6706 25.3631 23.2719 25.8645Z" fill="#65605D"/>
<path d="M14.8372 40.5053C14.6072 41.0993 14.1011 41.5621 13.6947 41.5235L13.043 41.4695C13.3267 40.7522 13.6181 40.0348 13.9248 39.3174L14.5229 39.3637C14.9293 39.4022 15.0673 39.9113 14.8372 40.5053Z" fill="#65605D"/>
<path d="M13.7024 67.4188L12.1075 69.409C11.7088 69.9104 11.5708 70.5815 11.8008 70.9055C12.0308 71.2295 12.5446 71.0906 12.9433 70.5969L14.5382 68.6068C14.937 68.1054 15.075 67.4343 14.8449 67.1103C14.6149 66.7786 14.1012 66.9174 13.7024 67.4188Z" fill="#65605D"/>
<path d="M23.2873 71.9391C22.8886 71.9083 22.3748 72.3634 22.1448 72.9574L21.2246 75.3332C20.9946 75.9272 21.1326 76.4363 21.5313 76.4749C21.9301 76.5057 22.4438 76.0506 22.6739 75.4566L23.594 73.0808C23.824 72.4791 23.686 71.97 23.2873 71.9391Z" fill="#65605D"/>
<path d="M47.4716 58.224C47.2415 57.9 46.7278 58.0388 46.3291 58.5325C45.9303 59.0339 45.7923 59.705 46.0224 60.029L46.9425 61.3326C47.1725 61.6566 47.6863 61.5178 48.085 61.0241C48.4837 60.5227 48.6218 59.8516 48.3917 59.5276L47.4716 58.224Z" fill="#65605D"/>
<path d="M57.4936 43.0123L55.8986 42.8812C55.4999 42.8503 54.9862 43.3054 54.7561 43.8994C54.5261 44.4934 54.6641 45.0025 55.0628 45.041L56.6578 45.1722C57.0565 45.203 57.5702 44.7479 57.8003 44.1539C58.038 43.56 57.8999 43.0509 57.4936 43.0123Z" fill="#65605D"/>
<path d="M36.8286 41.0221C36.8286 42.3181 35.9161 43.8994 34.7966 44.5551C33.6695 45.2107 32.7646 44.6862 32.7646 43.3903C32.7646 42.0944 33.6771 40.513 34.7966 39.8573C35.9161 39.2017 36.8286 39.7262 36.8286 41.0221Z" fill="#65605D"/>
<path d="M35.8089 41.6161C35.8089 42.2641 35.3565 43.0509 34.7967 43.3749C34.2369 43.6988 33.7845 43.4366 33.7845 42.7963C33.7845 42.1484 34.2369 41.3615 34.7967 41.0376C35.3565 40.7136 35.8089 40.9759 35.8089 41.6161Z" fill="#8C8886"/>
<path d="M74.0867 56.7969L48.4991 74.1607C47.5176 74.7316 46.8199 76.66 46.8199 76.66C46.8199 76.66 43.7221 74.8627 43.7067 74.8473C43.124 74.3459 42.7712 73.4356 42.7712 72.2014V60.4764C42.7712 57.8923 44.3355 54.8916 46.2601 53.7731L75.6893 36.6792C76.5865 36.1547 77.4069 36.1393 78.028 36.525C78.143 36.5944 80.8038 38.0677 80.9035 38.168C81.4249 38.6848 78.6874 39.8342 78.6874 40.9913L77.5833 50.0859C77.5756 52.6777 76.0114 55.6784 74.0867 56.7969Z" fill="#FFCC54"/>
<path d="M78.5111 59.3656L49.0819 76.4595C47.1573 77.578 45.593 76.39 45.593 73.8059V62.0809C45.593 59.4967 47.1573 56.4961 49.0819 55.3776L78.5111 38.2837C80.4357 37.1652 82 38.3531 82 40.9373V52.6623C82 55.2464 80.4357 58.2471 78.5111 59.3656Z" fill="#FFE254"/>
<path d="M48.1004 76.6754C47.0269 76.6754 46.3291 75.6032 46.3291 73.9447V62.3123C46.3291 59.8516 47.809 56.9975 49.634 55.933L78.7948 38.9934C79.2242 38.7466 79.6306 38.6154 80.014 38.6154C81.0875 38.6154 81.7853 39.6876 81.7853 41.3461V52.994C81.7853 55.4547 80.3054 58.3088 78.4804 59.3733L49.3119 76.3052C48.8825 76.552 48.4761 76.6754 48.1004 76.6754Z" fill="#FFF887"/>
<path d="M53.5983 64.4799C53.8283 64.0402 53.997 63.6005 53.997 63.2071C53.997 62.6903 53.5676 62.2969 52.9312 62.6671C52.3561 62.9988 51.8884 63.8011 51.8884 64.4799L49.9561 65.6061C49.9561 63.8782 51.1599 61.5641 53.0079 60.4918C54.7638 59.4736 55.9293 60.5304 55.9293 62.1812C55.9293 63.238 55.3849 64.3642 55.3849 64.3642L53.6673 68.1054L56.213 66.6243V68.7765L49.9791 72.3943L53.5983 64.4799Z" fill="#FF345D"/>
<path d="M63.0527 60.4918L64.709 59.5276V61.6798L63.0527 62.644V64.7961L61.1511 65.8992V63.7471L57.0334 66.1383V63.9708L60.6603 56.0332L63.0527 54.6447V60.4918ZM61.1511 61.5949V58.7022L59.3491 62.6363L61.1511 61.5949Z" fill="#FF345D"/>
<path d="M69.2024 51.0733L71.3187 49.8468L67.1474 62.4126L65.0464 63.6314L69.2024 51.0733Z" fill="#FF345D"/>
<path d="M79.0019 45.3804V47.5557L74.915 57.8923L72.7296 59.1651L76.8243 48.8054L72.0319 51.5901V49.4225L79.0019 45.3804Z" fill="#FF345D"/>
</g>
<defs>
<clipPath id="clip0">
<rect width="82" height="91" fill="white"/>
</clipPath>
</defs>
</svg>
