<svg width="44" height="45" viewBox="0 0 44 45" fill="none" xmlns="http://www.w3.org/2000/svg">
<path d="M3.68747 3.92579C0.308387 7.43567 0.99997 11.1641 0.99997 22.491C0.99997 31.8973 -0.641196 41.3268 7.94805 43.5467C10.6302 44.2365 34.3948 44.2365 37.0734 43.5431C40.6496 42.6204 43.5592 39.7197 43.957 34.6618C44.0125 33.9559 44.0125 11.0387 43.9552 10.3185C43.5323 4.93092 40.216 1.82596 35.8461 1.19709C34.8446 1.05196 34.6439 1.00896 29.5054 1C11.2788 1.00896 7.28335 0.197335 3.68747 3.92579Z" fill="url(#paint0_linear)"/>
<path d="M22.4964 6.62403C15.9909 6.62403 9.8132 6.04532 7.45358 12.1012C6.47891 14.6023 6.62045 17.8506 6.62045 22.5018C6.62045 26.5832 6.48966 30.4192 7.45358 32.9006C9.80783 38.96 16.0357 38.3795 22.4928 38.3795C28.7225 38.3795 35.1456 39.0281 37.5339 32.9006C38.5103 30.3744 38.367 27.1744 38.367 22.5018C38.367 16.299 38.7092 12.2947 35.701 9.28823C32.6552 6.2424 28.5361 6.62403 22.4892 6.62403H22.4964ZM21.0738 9.48532C34.6439 9.46382 36.3711 7.95524 35.4179 28.9124C35.0793 36.3245 29.4355 35.5111 22.4982 35.5111C9.84903 35.5111 9.48533 35.1492 9.48533 22.4946C9.48533 9.69315 10.4887 9.49249 21.0738 9.48173V9.48532ZM30.971 12.1209C29.9193 12.1209 29.0665 12.9737 29.0665 14.0254C29.0665 15.0771 29.9193 15.9299 30.971 15.9299C32.0227 15.9299 32.8755 15.0771 32.8755 14.0254C32.8755 12.9737 32.0227 12.1209 30.971 12.1209ZM22.4964 14.3479C17.994 14.3479 14.3443 17.9993 14.3443 22.5018C14.3443 27.0042 17.994 30.6539 22.4964 30.6539C26.9989 30.6539 30.6467 27.0042 30.6467 22.5018C30.6467 17.9993 26.9989 14.3479 22.4964 14.3479ZM22.4964 17.2092C29.4929 17.2092 29.5018 27.7944 22.4964 27.7944C15.5017 27.7944 15.491 17.2092 22.4964 17.2092Z" fill="white"/>
<defs>
<linearGradient id="paint0_linear" x1="3.76992" y1="41.2535" x2="43.7339" y2="6.6652" gradientUnits="userSpaceOnUse">
<stop stop-color="#FFDD55"/>
<stop offset="0.5" stop-color="#FF543E"/>
<stop offset="1" stop-color="#C837AB"/>
</linearGradient>
</defs>
</svg>
