<svg width="32" height="32" viewBox="0 0 32 32" fill="none" xmlns="http://www.w3.org/2000/svg">
<g clip-path="url(#clip0)">
<path d="M27.3117 4.68421C21.0623 -1.56322 10.9317 -1.56172 4.68422 4.68765C-1.56322 10.937 -1.56172 21.0676 4.68766 27.3151C10.937 33.5625 21.0677 33.561 27.3151 27.3116C30.3155 24.3103 32.0006 20.24 31.9997 15.9962C31.9988 11.7531 30.3125 7.68409 27.3117 4.68421ZM24.2311 22.2875L24.229 22.2896V22.2843L23.4183 23.0896C22.3698 24.1513 20.8429 24.5881 19.3916 24.2416C17.9294 23.8502 16.5394 23.2272 15.2743 22.3963C14.0989 21.6451 13.0097 20.767 12.0263 19.7776C11.1215 18.8794 10.3086 17.8931 9.5996 16.8336C8.82409 15.6935 8.21028 14.4515 7.77559 13.1429C7.27728 11.6056 7.69022 9.91883 8.84228 8.78559L9.7916 7.83627C10.0555 7.57115 10.4844 7.57021 10.7495 7.83415L10.7516 7.83627L13.7489 10.8336C14.014 11.0975 14.015 11.5264 13.751 11.7915L13.7489 11.7936L11.9889 13.5536C11.4839 14.0531 11.4204 14.8468 11.8396 15.4203C12.4762 16.2939 13.1806 17.116 13.9463 17.879C14.8 18.7363 15.728 19.5163 16.7196 20.2096C17.2925 20.6093 18.0693 20.5419 18.5649 20.0496L20.2662 18.3216C20.5302 18.0565 20.959 18.0556 21.2241 18.3195L21.2262 18.3216L24.2289 21.3296C24.4941 21.5935 24.495 22.0223 24.2311 22.2875Z" fill="url(#paint0_linear)"/>
</g>
<defs>
<linearGradient id="paint0_linear" x1="29.5" y1="3" x2="4" y2="27.5" gradientUnits="userSpaceOnUse">
<stop stop-color="#FF2E3C"/>
<stop offset="1" stop-color="#FE2222" stop-opacity="0.62"/>
</linearGradient>
<clipPath id="clip0">
<rect width="32" height="32" fill="white"/>
</clipPath>
</defs>
</svg>
