<svg width="42" height="42" viewBox="0 0 42 42" fill="none" xmlns="http://www.w3.org/2000/svg">
<circle cx="21" cy="21" r="21" fill="#FFF5F5"/>
<g clip-path="url(#clip0)">
<path d="M21 4.03848C11.6476 4.03848 4.03845 11.6476 4.03845 21C4.03845 30.3525 11.6476 37.9616 21 37.9616C30.3524 37.9616 37.9615 30.3525 37.9615 21C37.9615 11.6476 30.3524 4.03848 21 4.03848ZM21 8.98562C25.4812 8.98562 29.1274 12.6318 29.1274 17.113C29.1274 21.5943 25.4812 25.2404 21 25.2404C16.5188 25.2404 12.8726 21.5943 12.8726 17.113C12.8726 12.6317 16.5188 8.98562 21 8.98562ZM21 35.1346C16.3815 35.1346 12.286 32.8981 9.70513 29.4621C12.5327 28.1016 16.5706 26.6538 21 26.6538C25.4297 26.6538 29.468 28.1018 32.2949 29.462C29.714 32.8981 25.6186 35.1346 21 35.1346Z" fill="#6746AF"/>
</g>
<defs>
<clipPath id="clip0">
<rect x="4.03845" y="4.03848" width="33.9231" height="33.9231" fill="white"/>
</clipPath>
</defs>
</svg>
