<svg width="41" height="41" viewBox="0 0 41 41" fill="none" xmlns="http://www.w3.org/2000/svg">
<g clip-path="url(#clip0)">
<path d="M21.2329 0.0243053C24.3682 0.469748 27.1167 3.74205 28.8462 8.57466C26.346 9.1346 23.7947 9.43514 21.2329 9.47092V0.0243053Z" fill="#737373"/>
<path d="M26.2417 0.792826C26.4271 0.846493 26.6117 0.900519 26.7949 0.959911C26.9494 1.00964 27.1018 1.06331 27.2543 1.11662C27.4346 1.17888 27.6142 1.24292 27.7931 1.3109C27.9455 1.36886 28.0965 1.4304 28.2478 1.49194C28.4224 1.56528 28.5967 1.63827 28.7691 1.71162C28.9197 1.77781 29.0693 1.84722 29.2188 1.91699C29.3881 1.99677 29.5566 2.07799 29.7237 2.16243C29.8704 2.23721 30.0167 2.31341 30.1634 2.39177C30.3276 2.47978 30.4908 2.56959 30.6529 2.6619C30.7995 2.7449 30.9409 2.82827 31.0836 2.91413C31.2425 3.01181 31.4006 3.10949 31.5577 3.20716C31.6983 3.29661 31.8386 3.38749 31.977 3.48122C32.1316 3.58534 32.284 3.69375 32.4357 3.80216C32.572 3.89983 32.7076 3.99715 32.8407 4.09518C32.9874 4.20824 33.1377 4.32524 33.2847 4.44259C33.4153 4.54671 33.5455 4.65011 33.674 4.75709C33.8203 4.87873 33.9606 5.00467 34.1026 5.13062C34.2271 5.24117 34.3524 5.35065 34.474 5.46407C34.6139 5.59466 34.7502 5.72991 34.8865 5.86408C35.0046 5.98071 35.1241 6.09556 35.2397 6.21506C35.2611 6.23725 35.2815 6.26122 35.3037 6.28412C33.7055 7.10953 32.0221 7.75748 30.2829 8.21616C29.3784 5.33169 27.7687 2.71771 25.5999 0.611786C25.6592 0.627171 25.7186 0.639693 25.778 0.655078C25.9347 0.699086 26.0886 0.747387 26.2417 0.792826Z" fill="#737373"/>
<path d="M41.0001 19.7504H32.2143C32.181 16.32 31.6834 12.9099 30.7349 9.61293C32.6691 9.09629 34.5356 8.35353 36.2959 7.40003C39.1861 10.8834 40.8405 15.2266 41.0001 19.7504Z" fill="#737373"/>
<path d="M21.2329 21.2159H30.7489C30.7117 24.5251 30.2262 27.8138 29.3064 30.9928C26.6566 30.3885 23.9503 30.0657 21.2329 30.03V21.2159Z" fill="#737373"/>
<path d="M21.2329 40.9421V31.4955C23.7947 31.5316 26.346 31.8318 28.8462 32.3917C27.1167 37.2243 24.3682 40.4966 21.2329 40.9421Z" fill="#737373"/>
<path d="M21.2329 10.9364C23.9503 10.9002 26.6566 10.5775 29.3064 9.97322C30.2262 13.1521 30.7117 16.4413 30.7489 19.7504H21.2329V10.9364Z" fill="#737373"/>
<path d="M36.2959 33.5663C34.5356 32.6128 32.6691 31.8701 30.7349 31.3534C31.6834 28.0564 32.181 24.6464 32.2143 21.2159H41.0001C40.8402 25.7394 39.1858 30.0826 36.2959 33.5663Z" fill="#737373"/>
<path d="M35.306 34.678C35.2846 34.6998 35.2642 34.7234 35.2431 34.7459C35.1271 34.8654 35.0069 34.9807 34.8889 35.0969C34.7529 35.2311 34.6173 35.3667 34.477 35.4969C34.3558 35.61 34.2302 35.717 34.1057 35.8297C33.9636 35.9556 33.8216 36.0826 33.6756 36.2043C33.5489 36.3113 33.4191 36.4136 33.2903 36.5163C33.1436 36.6351 32.9933 36.7531 32.8423 36.8665C32.7099 36.9664 32.5758 37.063 32.4409 37.1596C32.2878 37.2698 32.1339 37.3796 31.9779 37.4844C31.8409 37.5767 31.7017 37.6669 31.5625 37.7553C31.404 37.8573 31.2459 37.9571 31.0845 38.0537C30.9432 38.1385 30.8004 38.2222 30.6573 38.3034C30.4935 38.3971 30.3292 38.488 30.1636 38.5768C30.0169 38.6501 29.8705 38.7299 29.7239 38.8032C29.5553 38.8884 29.3854 38.9703 29.2111 39.0508C29.0645 39.1206 28.9156 39.1886 28.7646 39.2548C28.5911 39.3317 28.4158 39.4011 28.2408 39.4744C28.0898 39.536 27.9396 39.5968 27.7872 39.6548C27.6093 39.7227 27.429 39.7864 27.2487 39.8487C27.0963 39.9024 26.9439 39.9557 26.7893 40.0058C26.6061 40.0651 26.4229 40.1192 26.2347 40.1736C26.0823 40.2183 25.9292 40.2637 25.775 40.3045C25.7159 40.3206 25.6558 40.3331 25.5964 40.3485C27.7653 38.2426 29.3747 35.629 30.2795 32.7441C32.0205 33.2028 33.7064 33.8511 35.306 34.678Z" fill="#737373"/>
<path d="M0 21.2159H8.78578C8.81906 24.6464 9.31674 28.0564 10.2649 31.3534C8.33104 31.8697 6.46447 32.6125 4.70416 33.5663C1.81397 30.0829 0.159572 25.7394 0 21.2159Z" fill="#737373"/>
<path d="M19.7674 0.0243053V9.47092C17.2056 9.43478 14.6543 9.1346 12.1541 8.57466C13.8832 3.74205 16.6321 0.469748 19.7674 0.0243053Z" fill="#737373"/>
<path d="M19.7672 19.7504H10.2512C10.2884 16.4413 10.7736 13.1521 11.6938 9.97322C14.3436 10.5779 17.0495 10.9006 19.7672 10.9364V19.7504Z" fill="#737373"/>
<path d="M19.7674 40.9421C16.6321 40.4966 13.8832 37.2243 12.1541 32.3917C14.6543 31.8314 17.2056 31.5312 19.7674 31.4955V40.9421Z" fill="#737373"/>
<path d="M19.7672 30.03C17.0499 30.0657 14.3436 30.3885 11.6938 30.9928C10.7736 27.8138 10.2884 24.5251 10.2512 21.2159H19.7672V30.03Z" fill="#737373"/>
<path d="M15.398 40.3492C15.3386 40.3338 15.2792 40.3213 15.2198 40.3059C15.0645 40.2644 14.9114 40.2183 14.7569 40.1735C14.573 40.1199 14.3905 40.0658 14.2059 40.0072C14.0502 39.9567 13.8971 39.9031 13.744 39.8497C13.5647 39.7864 13.3851 39.7234 13.2076 39.6562C13.0545 39.5975 12.9035 39.5367 12.7518 39.4744C12.5776 39.4011 12.403 39.3277 12.2309 39.2547C12.0799 39.1886 11.9307 39.1191 11.7812 39.0494C11.6119 38.9696 11.4434 38.8884 11.2763 38.8039C11.1296 38.7292 10.9829 38.6526 10.8366 38.5746C10.6724 38.4866 10.5096 38.3964 10.3479 38.3041C10.2012 38.2222 10.057 38.1381 9.91566 38.0522C9.75644 37.9563 9.59902 37.8572 9.44231 37.7592C9.30134 37.669 9.16144 37.5782 9.02298 37.4844C8.86842 37.3803 8.716 37.2719 8.5643 37.1635C8.42798 37.0658 8.29238 36.9685 8.15893 36.8701C8.00902 36.7574 7.8659 36.64 7.71492 36.5231C7.58468 36.4189 7.45337 36.3155 7.326 36.2078C7.17931 36.0869 7.04013 35.9617 6.89881 35.8365C6.77358 35.7248 6.64728 35.6164 6.52492 35.5009C6.38574 35.371 6.25014 35.2361 6.11418 35.1023C5.99611 34.9856 5.8759 34.8704 5.75997 34.7506C5.73887 34.7284 5.71847 34.7041 5.69629 34.6815C7.29416 33.8558 8.9779 33.2078 10.7171 32.7491C11.6216 35.6322 13.2302 38.2444 15.398 40.3492Z" fill="#737373"/>
<path d="M6.11105 5.86942C6.24736 5.73525 6.38296 5.59965 6.52286 5.46906C6.6445 5.35636 6.76973 5.24938 6.8946 5.13668C7.03664 5.01038 7.17868 4.88372 7.32465 4.76207C7.45131 4.65581 7.58047 4.55313 7.70999 4.45008C7.85668 4.3313 8.00302 4.21323 8.1583 4.0991C8.29032 3.99999 8.42449 3.9041 8.55866 3.80571C8.71179 3.69587 8.86635 3.58603 9.02235 3.48048C9.15938 3.38818 9.29856 3.29801 9.43774 3.20928C9.59623 3.10767 9.75438 3.00785 9.91574 2.91125C10.0571 2.82609 10.1998 2.74273 10.3429 2.66115C10.5068 2.56741 10.671 2.47654 10.8367 2.38816C10.983 2.31482 11.1297 2.23503 11.2764 2.16168C11.4449 2.07653 11.6149 1.9946 11.7891 1.91374C11.9358 1.84469 12.0846 1.77671 12.2356 1.71016C12.4091 1.63323 12.5841 1.56382 12.7594 1.49048C12.9104 1.42894 13.0607 1.36811 13.2131 1.31015C13.3909 1.24182 13.5712 1.17813 13.7516 1.11587C13.904 1.06256 14.0564 1.0089 14.211 0.959164C14.3941 0.899771 14.5773 0.845387 14.7655 0.791362C14.9179 0.746639 15.0711 0.7012 15.2249 0.660054C15.2843 0.643954 15.3444 0.631432 15.4038 0.616046C13.2349 2.72233 11.6256 5.33596 10.7208 8.22079C8.98156 7.76175 7.29782 7.1138 5.69995 6.28768C5.72142 6.26585 5.74181 6.24224 5.76328 6.2197C5.87312 6.10091 5.99155 5.9857 6.11105 5.86942Z" fill="#737373"/>
<path d="M4.70416 7.40003C6.46447 8.35353 8.33104 9.09629 10.2649 9.61293C9.31674 12.9099 8.81906 16.32 8.78578 19.7504H0C0.15993 15.2269 1.81397 10.8838 4.70416 7.40003Z" fill="#737373"/>
</g>
<defs>
<clipPath id="clip0">
<rect width="41" height="41" transform="matrix(1 0 0 -1 0 41)" fill="white"/>
</clipPath>
</defs>
</svg>
